G04 Layer_Color=2752767*
%FSAX25Y25*%
%MOIN*%
G70*
G01*
G75*
%ADD25C,0.00500*%
%ADD26C,0.00667*%
D25*
X0481354Y0247843D02*
Y0251843D01*
X0485354D01*
Y0247843D01*
X0481354D01*
Y0230126D02*
Y0234126D01*
X0485354D01*
Y0230126D01*
X0481354D01*
X0275000Y0339500D02*
Y0343500D01*
X0279000D01*
Y0339500D01*
X0275000D01*
X0251000Y0224500D02*
X0249000Y0228500D01*
X0253000D01*
X0251000Y0224500D01*
X0317500Y0189000D02*
Y0193000D01*
X0321500D01*
Y0189000D01*
X0317500D01*
X0327500D02*
Y0193000D01*
X0331500D01*
Y0189000D01*
X0327500D01*
X0337500D02*
Y0193000D01*
X0341500D01*
Y0189000D01*
X0337500D01*
X0347500D02*
Y0193000D01*
X0351500D01*
Y0189000D01*
X0347500D01*
X0357500D02*
Y0193000D01*
X0361500D01*
Y0189000D01*
X0357500D01*
X0367500D02*
Y0193000D01*
X0371500D01*
Y0189000D01*
X0367500D01*
X0377500D02*
Y0193000D01*
X0381500D01*
Y0189000D01*
X0377500D01*
X0387500D02*
Y0193000D01*
X0391500D01*
Y0189000D01*
X0387500D01*
X0397500D02*
Y0193000D01*
X0401500D01*
Y0189000D01*
X0397500D01*
X0407500D02*
Y0193000D01*
X0411500D01*
Y0189000D01*
X0407500D01*
X0231500D02*
Y0193000D01*
X0235500D01*
Y0189000D01*
X0231500D01*
X0261500D02*
Y0193000D01*
X0265500D01*
Y0189000D01*
X0261500D01*
X0271500D02*
Y0193000D01*
X0275500D01*
Y0189000D01*
X0271500D01*
X0281500D02*
Y0193000D01*
X0285500D01*
Y0189000D01*
X0281500D01*
X0291500D02*
Y0193000D01*
X0295500D01*
Y0189000D01*
X0291500D01*
X0301500D02*
Y0193000D01*
X0305500D01*
Y0189000D01*
X0301500D01*
X0241500D02*
Y0193000D01*
X0245500D01*
Y0189000D01*
X0241500D01*
X0251500D02*
Y0193000D01*
X0255500D01*
Y0189000D01*
X0251500D01*
X0251000Y0214500D02*
X0249000Y0218500D01*
X0253000D01*
X0251000Y0214500D01*
X0475000Y0315500D02*
X0476000Y0316500D01*
X0477000D01*
X0476000Y0317500D01*
X0477000Y0318500D01*
X0476000D01*
X0475000Y0319500D01*
X0474000Y0318500D01*
X0473000D01*
X0474000Y0317500D01*
X0473000Y0316500D01*
X0474000D01*
X0475000Y0315500D01*
X0445000D02*
X0446000Y0316500D01*
X0447000D01*
X0446000Y0317500D01*
X0447000Y0318500D01*
X0446000D01*
X0445000Y0319500D01*
X0444000Y0318500D01*
X0443000D01*
X0444000Y0317500D01*
X0443000Y0316500D01*
X0444000D01*
X0445000Y0315500D01*
X0432000D02*
X0433000Y0316500D01*
X0434000D01*
X0433000Y0317500D01*
X0434000Y0318500D01*
X0433000D01*
X0432000Y0319500D01*
X0431000Y0318500D01*
X0430000D01*
X0431000Y0317500D01*
X0430000Y0316500D01*
X0431000D01*
X0432000Y0315500D01*
X0402000D02*
X0403000Y0316500D01*
X0404000D01*
X0403000Y0317500D01*
X0404000Y0318500D01*
X0403000D01*
X0402000Y0319500D01*
X0401000Y0318500D01*
X0400000D01*
X0401000Y0317500D01*
X0400000Y0316500D01*
X0401000D01*
X0402000Y0315500D01*
X0421039Y0336642D02*
X0422039Y0338642D01*
X0421039Y0340642D01*
X0423039Y0339642D01*
X0425039Y0340642D01*
X0424039Y0338642D01*
X0425039Y0336642D01*
X0423039Y0337642D01*
X0421039Y0336642D01*
X0450567D02*
X0451567Y0338642D01*
X0450567Y0340642D01*
X0452567Y0339642D01*
X0454567Y0340642D01*
X0453567Y0338642D01*
X0454567Y0336642D01*
X0452567Y0337642D01*
X0450567Y0336642D01*
X0435803D02*
X0436803Y0338642D01*
X0435803Y0340642D01*
X0437803Y0339642D01*
X0439803Y0340642D01*
X0438803Y0338642D01*
X0439803Y0336642D01*
X0437803Y0337642D01*
X0435803Y0336642D01*
X0458654Y0355358D02*
Y0354358D01*
X0460654D01*
Y0355358D01*
X0461654D01*
Y0357358D01*
X0460654D01*
Y0358358D01*
X0458654D01*
Y0357358D01*
X0457654D01*
Y0355358D01*
X0458654D01*
X0415346D02*
Y0354358D01*
X0417346D01*
Y0355358D01*
X0418346D01*
Y0357358D01*
X0417346D01*
Y0358358D01*
X0415346D01*
Y0357358D01*
X0414346D01*
Y0355358D01*
X0415346D01*
X0282000Y0379000D02*
Y0383000D01*
X0286000D01*
Y0379000D01*
X0282000D01*
X0272000D02*
Y0383000D01*
X0276000D01*
Y0379000D01*
X0272000D01*
X0262000D02*
Y0383000D01*
X0266000D01*
Y0379000D01*
X0262000D01*
X0252000D02*
Y0383000D01*
X0256000D01*
Y0379000D01*
X0252000D01*
X0242000D02*
Y0383000D01*
X0246000D01*
Y0379000D01*
X0242000D01*
X0232000D02*
Y0383000D01*
X0236000D01*
Y0379000D01*
X0232000D01*
X0301000D02*
Y0383000D01*
X0305000D01*
Y0379000D01*
X0301000D01*
X0331000D02*
Y0383000D01*
X0335000D01*
Y0379000D01*
X0331000D01*
X0341000D02*
Y0383000D01*
X0345000D01*
Y0379000D01*
X0341000D01*
X0351000D02*
Y0383000D01*
X0355000D01*
Y0379000D01*
X0351000D01*
X0361000D02*
Y0383000D01*
X0365000D01*
Y0379000D01*
X0361000D01*
X0371000D02*
Y0383000D01*
X0375000D01*
Y0379000D01*
X0371000D01*
X0311000D02*
Y0383000D01*
X0315000D01*
Y0379000D01*
X0311000D01*
X0321000D02*
Y0383000D01*
X0325000D01*
Y0379000D01*
X0321000D01*
X0254315Y0266000D02*
X0252315Y0270000D01*
X0256315D01*
X0254315Y0266000D01*
X0264157D02*
X0262157Y0270000D01*
X0266157D01*
X0264157Y0266000D01*
X0274000D02*
X0272000Y0270000D01*
X0276000D01*
X0274000Y0266000D01*
X0315539Y0314642D02*
X0316539Y0316642D01*
X0315539Y0318642D01*
X0317539Y0317642D01*
X0319539Y0318642D01*
X0318539Y0316642D01*
X0319539Y0314642D01*
X0317539Y0315642D01*
X0315539Y0314642D01*
X0345067D02*
X0346067Y0316642D01*
X0345067Y0318642D01*
X0347067Y0317642D01*
X0349067Y0318642D01*
X0348067Y0316642D01*
X0349067Y0314642D01*
X0347067Y0315642D01*
X0345067Y0314642D01*
X0330303D02*
X0331303Y0316642D01*
X0330303Y0318642D01*
X0332303Y0317642D01*
X0334303Y0318642D01*
X0333303Y0316642D01*
X0334303Y0314642D01*
X0332303Y0315642D01*
X0330303Y0314642D01*
X0353154Y0333358D02*
Y0332358D01*
X0355154D01*
Y0333358D01*
X0356154D01*
Y0335358D01*
X0355154D01*
Y0336358D01*
X0353154D01*
Y0335358D01*
X0352154D01*
Y0333358D01*
X0353154D01*
X0309846D02*
Y0332358D01*
X0311846D01*
Y0333358D01*
X0312846D01*
Y0335358D01*
X0311846D01*
Y0336358D01*
X0309846D01*
Y0335358D01*
X0308846D01*
Y0333358D01*
X0309846D01*
X0236500Y0234000D02*
X0237500D01*
X0238500Y0235000D01*
X0239500Y0234000D01*
X0240500D01*
Y0235000D01*
X0239500Y0236000D01*
X0240500Y0237000D01*
Y0238000D01*
X0239500D01*
X0238500Y0237000D01*
X0237500Y0238000D01*
X0236500D01*
Y0237000D01*
X0237500Y0236000D01*
X0236500Y0235000D01*
Y0234000D01*
X0247000Y0281500D02*
X0248000D01*
X0249000Y0282500D01*
X0250000Y0281500D01*
X0251000D01*
Y0282500D01*
X0250000Y0283500D01*
X0251000Y0284500D01*
Y0285500D01*
X0250000D01*
X0249000Y0284500D01*
X0248000Y0285500D01*
X0247000D01*
Y0284500D01*
X0248000Y0283500D01*
X0247000Y0282500D01*
Y0281500D01*
X0443780Y0230126D02*
X0444780D01*
X0445780Y0231126D01*
X0446780Y0230126D01*
X0447780D01*
Y0231126D01*
X0446780Y0232126D01*
X0447780Y0233126D01*
Y0234126D01*
X0446780D01*
X0445780Y0233126D01*
X0444780Y0234126D01*
X0443780D01*
Y0233126D01*
X0444780Y0232126D01*
X0443780Y0231126D01*
Y0230126D01*
X0438453Y0294500D02*
X0439453D01*
X0440453Y0295500D01*
X0441453Y0294500D01*
X0442453D01*
Y0295500D01*
X0441453Y0296500D01*
X0442453Y0297500D01*
Y0298500D01*
X0441453D01*
X0440453Y0297500D01*
X0439453Y0298500D01*
X0438453D01*
Y0297500D01*
X0439453Y0296500D01*
X0438453Y0295500D01*
Y0294500D01*
X0408500Y0248500D02*
X0409500D01*
X0410500Y0249500D01*
X0411500Y0248500D01*
X0412500D01*
Y0249500D01*
X0411500Y0250500D01*
X0412500Y0251500D01*
Y0252500D01*
X0411500D01*
X0410500Y0251500D01*
X0409500Y0252500D01*
X0408500D01*
Y0251500D01*
X0409500Y0250500D01*
X0408500Y0249500D01*
Y0248500D01*
X0408744Y0298256D02*
X0409744D01*
X0410744Y0299256D01*
X0411744Y0298256D01*
X0412744D01*
Y0299256D01*
X0411744Y0300256D01*
X0412744Y0301256D01*
Y0302256D01*
X0411744D01*
X0410744Y0301256D01*
X0409744Y0302256D01*
X0408744D01*
Y0301256D01*
X0409744Y0300256D01*
X0408744Y0299256D01*
Y0298256D01*
X0378000Y0240500D02*
X0379000D01*
X0380000Y0241500D01*
X0381000Y0240500D01*
X0382000D01*
Y0241500D01*
X0381000Y0242500D01*
X0382000Y0243500D01*
Y0244500D01*
X0381000D01*
X0380000Y0243500D01*
X0379000Y0244500D01*
X0378000D01*
Y0243500D01*
X0379000Y0242500D01*
X0378000Y0241500D01*
Y0240500D01*
X0368500Y0313500D02*
X0369500D01*
X0370500Y0314500D01*
X0371500Y0313500D01*
X0372500D01*
Y0314500D01*
X0371500Y0315500D01*
X0372500Y0316500D01*
Y0317500D01*
X0371500D01*
X0370500Y0316500D01*
X0369500Y0317500D01*
X0368500D01*
Y0316500D01*
X0369500Y0315500D01*
X0368500Y0314500D01*
Y0313500D01*
X0459500Y0321500D02*
X0460500D01*
X0461500Y0322500D01*
X0462500Y0321500D01*
X0463500D01*
Y0322500D01*
X0462500Y0323500D01*
X0463500Y0324500D01*
Y0325500D01*
X0462500D01*
X0461500Y0324500D01*
X0460500Y0325500D01*
X0459500D01*
Y0324500D01*
X0460500Y0323500D01*
X0459500Y0322500D01*
Y0321500D01*
X0278000Y0332500D02*
X0279000D01*
X0280000Y0333500D01*
X0281000Y0332500D01*
X0282000D01*
Y0333500D01*
X0281000Y0334500D01*
X0282000Y0335500D01*
Y0336500D01*
X0281000D01*
X0280000Y0335500D01*
X0279000Y0336500D01*
X0278000D01*
Y0335500D01*
X0279000Y0334500D01*
X0278000Y0333500D01*
Y0332500D01*
X0381000Y0230500D02*
X0382000D01*
X0383000Y0231500D01*
X0384000Y0230500D01*
X0385000D01*
Y0231500D01*
X0384000Y0232500D01*
X0385000Y0233500D01*
Y0234500D01*
X0384000D01*
X0383000Y0233500D01*
X0382000Y0234500D01*
X0381000D01*
Y0233500D01*
X0382000Y0232500D01*
X0381000Y0231500D01*
Y0230500D01*
Y0220500D02*
X0382000D01*
X0383000Y0221500D01*
X0384000Y0220500D01*
X0385000D01*
Y0221500D01*
X0384000Y0222500D01*
X0385000Y0223500D01*
Y0224500D01*
X0384000D01*
X0383000Y0223500D01*
X0382000Y0224500D01*
X0381000D01*
Y0223500D01*
X0382000Y0222500D01*
X0381000Y0221500D01*
Y0220500D01*
X0381500Y0210500D02*
X0382500D01*
X0383500Y0211500D01*
X0384500Y0210500D01*
X0385500D01*
Y0211500D01*
X0384500Y0212500D01*
X0385500Y0213500D01*
Y0214500D01*
X0384500D01*
X0383500Y0213500D01*
X0382500Y0214500D01*
X0381500D01*
Y0213500D01*
X0382500Y0212500D01*
X0381500Y0211500D01*
Y0210500D01*
X0228047Y0265453D02*
X0229047D01*
X0230047Y0266453D01*
X0231047Y0265453D01*
X0232047D01*
Y0266453D01*
X0231047Y0267453D01*
X0232047Y0268453D01*
Y0269453D01*
X0231047D01*
X0230047Y0268453D01*
X0229047Y0269453D01*
X0228047D01*
Y0268453D01*
X0229047Y0267453D01*
X0228047Y0266453D01*
Y0265453D01*
X0244453Y0205000D02*
X0245453D01*
X0246453Y0206000D01*
X0247453Y0205000D01*
X0248453D01*
Y0206000D01*
X0247453Y0207000D01*
X0248453Y0208000D01*
Y0209000D01*
X0247453D01*
X0246453Y0208000D01*
X0245453Y0209000D01*
X0244453D01*
Y0208000D01*
X0245453Y0207000D01*
X0244453Y0206000D01*
Y0205000D01*
X0228047Y0202453D02*
X0229047D01*
X0230047Y0203453D01*
X0231047Y0202453D01*
X0232047D01*
Y0203453D01*
X0231047Y0204453D01*
X0232047Y0205453D01*
Y0206453D01*
X0231047D01*
X0230047Y0205453D01*
X0229047Y0206453D01*
X0228047D01*
Y0205453D01*
X0229047Y0204453D01*
X0228047Y0203453D01*
Y0202453D01*
X0251000Y0189000D02*
X0252000D01*
X0253000Y0190000D01*
X0254000Y0189000D01*
X0255000D01*
Y0190000D01*
X0254000Y0191000D01*
X0255000Y0192000D01*
Y0193000D01*
X0254000D01*
X0253000Y0192000D01*
X0252000Y0193000D01*
X0251000D01*
Y0192000D01*
X0252000Y0191000D01*
X0251000Y0190000D01*
Y0189000D01*
D26*
Y0293500D02*
X0250771Y0294429D01*
X0250136Y0295146D01*
X0249241Y0295485D01*
X0248291Y0295370D01*
X0247503Y0294826D01*
X0247058Y0293979D01*
Y0293021D01*
X0247503Y0292174D01*
X0248291Y0291630D01*
X0249241Y0291515D01*
X0250136Y0291854D01*
X0250771Y0292571D01*
X0251000Y0293500D01*
X0261000D02*
X0260771Y0294429D01*
X0260136Y0295146D01*
X0259241Y0295485D01*
X0258291Y0295370D01*
X0257503Y0294826D01*
X0257058Y0293979D01*
Y0293021D01*
X0257503Y0292174D01*
X0258291Y0291630D01*
X0259241Y0291515D01*
X0260136Y0291854D01*
X0260771Y0292571D01*
X0261000Y0293500D01*
X0271000D02*
X0270771Y0294429D01*
X0270136Y0295146D01*
X0269241Y0295485D01*
X0268291Y0295370D01*
X0267503Y0294826D01*
X0267058Y0293979D01*
Y0293021D01*
X0267503Y0292174D01*
X0268291Y0291630D01*
X0269241Y0291515D01*
X0270136Y0291854D01*
X0270771Y0292571D01*
X0271000Y0293500D01*
X0281000D02*
X0280771Y0294429D01*
X0280136Y0295146D01*
X0279241Y0295485D01*
X0278291Y0295370D01*
X0277503Y0294826D01*
X0277058Y0293979D01*
Y0293021D01*
X0277503Y0292174D01*
X0278291Y0291630D01*
X0279241Y0291515D01*
X0280136Y0291854D01*
X0280771Y0292571D01*
X0281000Y0293500D01*
X0251000Y0323500D02*
X0250771Y0324429D01*
X0250136Y0325146D01*
X0249241Y0325485D01*
X0248291Y0325370D01*
X0247503Y0324826D01*
X0247058Y0323979D01*
Y0323021D01*
X0247503Y0322174D01*
X0248291Y0321630D01*
X0249241Y0321515D01*
X0250136Y0321854D01*
X0250771Y0322571D01*
X0251000Y0323500D01*
X0261000D02*
X0260771Y0324429D01*
X0260136Y0325146D01*
X0259241Y0325485D01*
X0258291Y0325370D01*
X0257503Y0324826D01*
X0257058Y0323979D01*
Y0323021D01*
X0257503Y0322174D01*
X0258291Y0321630D01*
X0259241Y0321515D01*
X0260136Y0321854D01*
X0260771Y0322571D01*
X0261000Y0323500D01*
X0271000D02*
X0270771Y0324429D01*
X0270136Y0325146D01*
X0269241Y0325485D01*
X0268291Y0325370D01*
X0267503Y0324826D01*
X0267058Y0323979D01*
Y0323021D01*
X0267503Y0322174D01*
X0268291Y0321630D01*
X0269241Y0321515D01*
X0270136Y0321854D01*
X0270771Y0322571D01*
X0271000Y0323500D01*
X0281000D02*
X0280771Y0324429D01*
X0280136Y0325146D01*
X0279241Y0325485D01*
X0278291Y0325370D01*
X0277503Y0324826D01*
X0277058Y0323979D01*
Y0323021D01*
X0277503Y0322174D01*
X0278291Y0321630D01*
X0279241Y0321515D01*
X0280136Y0321854D01*
X0280771Y0322571D01*
X0281000Y0323500D01*
M02*
