G04 Layer_Color=128*
%FSAX25Y25*%
%MOIN*%
G70*
G01*
G75*
%ADD25C,0.00500*%
D25*
X0481854Y0249843D02*
X0484854D01*
X0483354Y0248343D02*
Y0251343D01*
X0481854Y0232126D02*
X0484854D01*
X0483354Y0230626D02*
Y0233626D01*
X0275500Y0341500D02*
X0278500D01*
X0277000Y0340000D02*
Y0343000D01*
X0247228Y0293500D02*
X0250772D01*
X0249000Y0291728D02*
Y0295272D01*
X0249425Y0226500D02*
X0252575D01*
X0251000Y0224925D02*
Y0228075D01*
X0318000Y0191000D02*
X0321000D01*
X0319500Y0189500D02*
Y0192500D01*
X0328000Y0191000D02*
X0331000D01*
X0329500Y0189500D02*
Y0192500D01*
X0338000Y0191000D02*
X0341000D01*
X0339500Y0189500D02*
Y0192500D01*
X0348000Y0191000D02*
X0351000D01*
X0349500Y0189500D02*
Y0192500D01*
X0358000Y0191000D02*
X0361000D01*
X0359500Y0189500D02*
Y0192500D01*
X0368000Y0191000D02*
X0371000D01*
X0369500Y0189500D02*
Y0192500D01*
X0378000Y0191000D02*
X0381000D01*
X0379500Y0189500D02*
Y0192500D01*
X0388000Y0191000D02*
X0391000D01*
X0389500Y0189500D02*
Y0192500D01*
X0398000Y0191000D02*
X0401000D01*
X0399500Y0189500D02*
Y0192500D01*
X0408000Y0191000D02*
X0411000D01*
X0409500Y0189500D02*
Y0192500D01*
X0232000Y0191000D02*
X0235000D01*
X0233500Y0189500D02*
Y0192500D01*
X0262000Y0191000D02*
X0265000D01*
X0263500Y0189500D02*
Y0192500D01*
X0272000Y0191000D02*
X0275000D01*
X0273500Y0189500D02*
Y0192500D01*
X0282000Y0191000D02*
X0285000D01*
X0283500Y0189500D02*
Y0192500D01*
X0292000Y0191000D02*
X0295000D01*
X0293500Y0189500D02*
Y0192500D01*
X0302000Y0191000D02*
X0305000D01*
X0303500Y0189500D02*
Y0192500D01*
X0242000Y0191000D02*
X0245000D01*
X0243500Y0189500D02*
Y0192500D01*
X0252000Y0191000D02*
X0255000D01*
X0253500Y0189500D02*
Y0192500D01*
X0249425Y0216500D02*
X0252575D01*
X0251000Y0214925D02*
Y0218075D01*
X0473327Y0317500D02*
X0476673D01*
X0475000Y0315827D02*
Y0319173D01*
X0443327Y0317500D02*
X0446673D01*
X0445000Y0315827D02*
Y0319173D01*
X0430327Y0317500D02*
X0433673D01*
X0432000Y0315827D02*
Y0319173D01*
X0400327Y0317500D02*
X0403673D01*
X0402000Y0315827D02*
Y0319173D01*
X0421071Y0338642D02*
X0425008D01*
X0423039Y0336673D02*
Y0340610D01*
X0450598Y0338642D02*
X0454535D01*
X0452567Y0336673D02*
Y0340610D01*
X0435835Y0338642D02*
X0439772D01*
X0437803Y0336673D02*
Y0340610D01*
X0454929Y0356358D02*
X0464378D01*
X0459654Y0351634D02*
Y0361083D01*
X0411622Y0356358D02*
X0421071D01*
X0416346Y0351634D02*
Y0361083D01*
X0282500Y0381000D02*
X0285500D01*
X0284000Y0379500D02*
Y0382500D01*
X0272500Y0381000D02*
X0275500D01*
X0274000Y0379500D02*
Y0382500D01*
X0262500Y0381000D02*
X0265500D01*
X0264000Y0379500D02*
Y0382500D01*
X0252500Y0381000D02*
X0255500D01*
X0254000Y0379500D02*
Y0382500D01*
X0242500Y0381000D02*
X0245500D01*
X0244000Y0379500D02*
Y0382500D01*
X0232500Y0381000D02*
X0235500D01*
X0234000Y0379500D02*
Y0382500D01*
X0301500Y0381000D02*
X0304500D01*
X0303000Y0379500D02*
Y0382500D01*
X0331500Y0381000D02*
X0334500D01*
X0333000Y0379500D02*
Y0382500D01*
X0341500Y0381000D02*
X0344500D01*
X0343000Y0379500D02*
Y0382500D01*
X0351500Y0381000D02*
X0354500D01*
X0353000Y0379500D02*
Y0382500D01*
X0361500Y0381000D02*
X0364500D01*
X0363000Y0379500D02*
Y0382500D01*
X0371500Y0381000D02*
X0374500D01*
X0373000Y0379500D02*
Y0382500D01*
X0311500Y0381000D02*
X0314500D01*
X0313000Y0379500D02*
Y0382500D01*
X0321500Y0381000D02*
X0324500D01*
X0323000Y0379500D02*
Y0382500D01*
X0257228Y0293500D02*
X0260772D01*
X0259000Y0291728D02*
Y0295272D01*
X0267228Y0293500D02*
X0270772D01*
X0269000Y0291728D02*
Y0295272D01*
X0277228Y0293500D02*
X0280772D01*
X0279000Y0291728D02*
Y0295272D01*
X0247228Y0323500D02*
X0250772D01*
X0249000Y0321728D02*
Y0325272D01*
X0257228Y0323500D02*
X0260772D01*
X0259000Y0321728D02*
Y0325272D01*
X0267228Y0323500D02*
X0270772D01*
X0269000Y0321728D02*
Y0325272D01*
X0277228Y0323500D02*
X0280772D01*
X0279000Y0321728D02*
Y0325272D01*
X0252740Y0268000D02*
X0255890D01*
X0254315Y0266425D02*
Y0269575D01*
X0262583Y0268000D02*
X0265732D01*
X0264157Y0266425D02*
Y0269575D01*
X0272425Y0268000D02*
X0275575D01*
X0274000Y0266425D02*
Y0269575D01*
X0315571Y0316642D02*
X0319508D01*
X0317539Y0314673D02*
Y0318610D01*
X0345098Y0316642D02*
X0349036D01*
X0347067Y0314673D02*
Y0318610D01*
X0330335Y0316642D02*
X0334272D01*
X0332303Y0314673D02*
Y0318610D01*
X0349429Y0334358D02*
X0358878D01*
X0354154Y0329634D02*
Y0339083D01*
X0306122Y0334358D02*
X0315571D01*
X0310846Y0329634D02*
Y0339083D01*
X0237100Y0236000D02*
X0239900D01*
X0238500Y0234600D02*
Y0237400D01*
X0247600Y0283500D02*
X0250400D01*
X0249000Y0282100D02*
Y0284900D01*
X0444380Y0232126D02*
X0447180D01*
X0445780Y0230726D02*
Y0233526D01*
X0439053Y0296500D02*
X0441853D01*
X0440453Y0295100D02*
Y0297900D01*
X0409100Y0250500D02*
X0411900D01*
X0410500Y0249100D02*
Y0251900D01*
X0409344Y0300256D02*
X0412144D01*
X0410744Y0298856D02*
Y0301656D01*
X0378600Y0242500D02*
X0381400D01*
X0380000Y0241100D02*
Y0243900D01*
X0369100Y0315500D02*
X0371900D01*
X0370500Y0314100D02*
Y0316900D01*
X0460100Y0323500D02*
X0462900D01*
X0461500Y0322100D02*
Y0324900D01*
X0278600Y0334500D02*
X0281400D01*
X0280000Y0333100D02*
Y0335900D01*
X0381600Y0232500D02*
X0384400D01*
X0383000Y0231100D02*
Y0233900D01*
X0381600Y0222500D02*
X0384400D01*
X0383000Y0221100D02*
Y0223900D01*
X0382100Y0212500D02*
X0384900D01*
X0383500Y0211100D02*
Y0213900D01*
X0228647Y0267453D02*
X0231447D01*
X0230047Y0266053D02*
Y0268853D01*
X0245053Y0207000D02*
X0247853D01*
X0246453Y0205600D02*
Y0208400D01*
X0228647Y0204453D02*
X0231447D01*
X0230047Y0203053D02*
Y0205853D01*
X0251600Y0191000D02*
X0254400D01*
X0253000Y0189600D02*
Y0192400D01*
M02*
