G04 Layer_Physical_Order=2*
G04 Layer_Color=16711680*
%FSLAX25Y25*%
%MOIN*%
G70*
G01*
G75*
%ADD15C,0.02000*%
%ADD16R,0.13780X0.15748*%
%ADD17C,0.06000*%
%ADD18R,0.05906X0.05906*%
%ADD19C,0.05906*%
%ADD20R,0.06000X0.06000*%
%ADD21C,0.05512*%
%ADD22C,0.06299*%
%ADD23C,0.06000*%
%ADD24C,0.05600*%
G36*
X476000Y345500D02*
X487500Y334000D01*
X488750Y332750D01*
X600500Y332000D01*
X601500Y333000D01*
X654000Y280500D01*
Y279500D01*
Y201500D01*
X653000Y200500D01*
X605500Y153000D01*
X534000D01*
X512000Y174000D01*
X510500Y175500D01*
X223000Y176500D01*
Y386500D01*
X225000Y389000D01*
Y390000D01*
X228500Y393500D01*
X229500Y394500D01*
X476000D01*
Y345500D01*
D02*
G37*
%LPC*%
G36*
X444220Y296000D02*
X436686D01*
X436751Y295508D01*
X437134Y294584D01*
X437743Y293790D01*
X437904Y293666D01*
Y237453D01*
X438098Y236477D01*
X438650Y235650D01*
X441675Y232626D01*
X445280D01*
Y236231D01*
X443002Y238509D01*
Y293666D01*
X443163Y293790D01*
X443772Y294584D01*
X444155Y295508D01*
X444220Y296000D01*
D02*
G37*
G36*
X449547Y231626D02*
X446280D01*
Y228359D01*
X446772Y228424D01*
X447696Y228807D01*
X448490Y229416D01*
X449099Y230210D01*
X449482Y231134D01*
X449547Y231626D01*
D02*
G37*
G36*
X482854Y236095D02*
X482310Y236023D01*
X481337Y235620D01*
X480502Y234979D01*
X479860Y234143D01*
X479457Y233170D01*
X479386Y232626D01*
X482854D01*
Y236095D01*
D02*
G37*
G36*
X446280Y235893D02*
Y232626D01*
X449547D01*
X449482Y233118D01*
X449099Y234042D01*
X448490Y234836D01*
X447696Y235445D01*
X446772Y235828D01*
X446280Y235893D01*
D02*
G37*
G36*
X445280Y231626D02*
X442013D01*
X442077Y231134D01*
X442460Y230210D01*
X443069Y229416D01*
X443863Y228807D01*
X444788Y228424D01*
X445280Y228359D01*
Y231626D01*
D02*
G37*
G36*
X482854D02*
X479386D01*
X479457Y231082D01*
X479860Y230109D01*
X480502Y229273D01*
X481337Y228632D01*
X482310Y228229D01*
X482854Y228157D01*
Y231626D01*
D02*
G37*
G36*
X238500Y240337D02*
X237378Y240189D01*
X236331Y239756D01*
X235433Y239067D01*
X234744Y238169D01*
X234311Y237123D01*
X234163Y236000D01*
X234311Y234877D01*
X234744Y233831D01*
X235433Y232933D01*
X236331Y232244D01*
X237378Y231811D01*
X238500Y231663D01*
X239147Y231748D01*
X246198Y224698D01*
X246912Y224221D01*
X246939Y224155D01*
X247684Y223184D01*
X248655Y222439D01*
X249786Y221970D01*
X251000Y221810D01*
X252214Y221970D01*
X253345Y222439D01*
X254316Y223184D01*
X255061Y224155D01*
X255530Y225286D01*
X255690Y226500D01*
X255530Y227714D01*
X255061Y228845D01*
X254316Y229816D01*
X253345Y230561D01*
X252214Y231030D01*
X251000Y231190D01*
X249786Y231030D01*
X248655Y230561D01*
X248026Y230079D01*
X242752Y235353D01*
X242837Y236000D01*
X242689Y237123D01*
X242256Y238169D01*
X241567Y239067D01*
X240669Y239756D01*
X239622Y240189D01*
X238500Y240337D01*
D02*
G37*
G36*
X383000Y236837D02*
X381877Y236689D01*
X380831Y236256D01*
X379933Y235567D01*
X379244Y234669D01*
X378811Y233623D01*
X378663Y232500D01*
X378748Y231853D01*
X361444Y214549D01*
X350500D01*
X349524Y214355D01*
X348698Y213802D01*
X330325Y195430D01*
X329500Y195539D01*
X328325Y195384D01*
X327231Y194931D01*
X326291Y194209D01*
X325569Y193269D01*
X325116Y192175D01*
X324961Y191000D01*
X325116Y189825D01*
X325569Y188731D01*
X326291Y187791D01*
X327231Y187069D01*
X328325Y186616D01*
X329500Y186461D01*
X330675Y186616D01*
X331769Y187069D01*
X332709Y187791D01*
X333431Y188731D01*
X333884Y189825D01*
X334039Y191000D01*
X333930Y191825D01*
X334783Y192678D01*
X335207Y192395D01*
X335116Y192175D01*
X334961Y191000D01*
X335116Y189825D01*
X335569Y188731D01*
X336291Y187791D01*
X337231Y187069D01*
X338325Y186616D01*
X339500Y186461D01*
X340675Y186616D01*
X341769Y187069D01*
X342709Y187791D01*
X343431Y188731D01*
X343884Y189825D01*
X344039Y191000D01*
X343930Y191825D01*
X344783Y192678D01*
X345207Y192395D01*
X345116Y192175D01*
X344961Y191000D01*
X345116Y189825D01*
X345569Y188731D01*
X346291Y187791D01*
X347231Y187069D01*
X348325Y186616D01*
X349500Y186461D01*
X350675Y186616D01*
X351769Y187069D01*
X352709Y187791D01*
X353431Y188731D01*
X353884Y189825D01*
X354039Y191000D01*
X353930Y191825D01*
X354783Y192678D01*
X355207Y192395D01*
X355116Y192175D01*
X354961Y191000D01*
X355116Y189825D01*
X355569Y188731D01*
X356291Y187791D01*
X357231Y187069D01*
X358325Y186616D01*
X359500Y186461D01*
X360675Y186616D01*
X361769Y187069D01*
X362709Y187791D01*
X363431Y188731D01*
X363884Y189825D01*
X364039Y191000D01*
X363884Y192175D01*
X363431Y193269D01*
X362709Y194209D01*
X361769Y194931D01*
X360675Y195384D01*
X359500Y195539D01*
X358325Y195384D01*
X358105Y195293D01*
X357821Y195717D01*
X361056Y198951D01*
X372500D01*
X373476Y199145D01*
X374302Y199698D01*
X382853Y208248D01*
X383500Y208163D01*
X384623Y208311D01*
X385669Y208744D01*
X386567Y209433D01*
X387256Y210331D01*
X387689Y211378D01*
X387837Y212500D01*
X387689Y213622D01*
X387256Y214669D01*
X386567Y215567D01*
X385669Y216256D01*
X384623Y216689D01*
X383500Y216837D01*
X382378Y216689D01*
X381331Y216256D01*
X380433Y215567D01*
X379744Y214669D01*
X379311Y213622D01*
X379163Y212500D01*
X379248Y211853D01*
X371444Y204049D01*
X368807D01*
X368616Y204511D01*
X382353Y218248D01*
X383000Y218163D01*
X384122Y218311D01*
X385169Y218744D01*
X386067Y219433D01*
X386756Y220331D01*
X387189Y221377D01*
X387337Y222500D01*
X387189Y223622D01*
X386756Y224669D01*
X386067Y225567D01*
X385169Y226256D01*
X384122Y226689D01*
X383000Y226837D01*
X381877Y226689D01*
X381235Y226423D01*
X380952Y226847D01*
X382353Y228248D01*
X383000Y228163D01*
X384122Y228311D01*
X385169Y228744D01*
X386067Y229433D01*
X386756Y230331D01*
X387189Y231378D01*
X387337Y232500D01*
X387189Y233623D01*
X386756Y234669D01*
X386067Y235567D01*
X385169Y236256D01*
X384122Y236689D01*
X383000Y236837D01*
D02*
G37*
G36*
X487323Y231626D02*
X483854D01*
Y228157D01*
X484399Y228229D01*
X485372Y228632D01*
X486207Y229273D01*
X486848Y230109D01*
X487252Y231082D01*
X487323Y231626D01*
D02*
G37*
G36*
X259000Y297991D02*
X257838Y297838D01*
X256754Y297390D01*
X255824Y296676D01*
X255111Y295746D01*
X254662Y294662D01*
X254509Y293500D01*
X254662Y292338D01*
X255111Y291254D01*
X255824Y290324D01*
X256451Y289843D01*
Y273157D01*
X256645Y272182D01*
X257053Y271571D01*
X256683Y271224D01*
X256332Y271494D01*
X255359Y271897D01*
X254815Y271969D01*
Y268500D01*
X258284D01*
X258212Y269044D01*
X257809Y270017D01*
X257746Y270100D01*
X258122Y270430D01*
X259727Y268825D01*
X259619Y268000D01*
X259773Y266825D01*
X260227Y265731D01*
X260948Y264791D01*
X261888Y264069D01*
X262983Y263616D01*
X264157Y263461D01*
X265332Y263616D01*
X266427Y264069D01*
X267367Y264791D01*
X268088Y265731D01*
X268542Y266825D01*
X268696Y268000D01*
X268542Y269175D01*
X268088Y270269D01*
X267367Y271209D01*
X266427Y271931D01*
X265332Y272384D01*
X264157Y272539D01*
X263332Y272430D01*
X261549Y274213D01*
Y289843D01*
X262176Y290324D01*
X262890Y291254D01*
X263338Y292338D01*
X263491Y293500D01*
X263338Y294662D01*
X262890Y295746D01*
X262176Y296676D01*
X261246Y297390D01*
X260162Y297838D01*
X259000Y297991D01*
D02*
G37*
G36*
X229547Y271220D02*
X229055Y271155D01*
X228131Y270772D01*
X227337Y270163D01*
X226728Y269369D01*
X226345Y268445D01*
X226280Y267953D01*
X229547D01*
Y271220D01*
D02*
G37*
G36*
X439953Y300267D02*
X439461Y300202D01*
X438536Y299819D01*
X437743Y299210D01*
X437134Y298416D01*
X436751Y297492D01*
X436686Y297000D01*
X439953D01*
Y300267D01*
D02*
G37*
G36*
X248500Y323000D02*
X244895D01*
X225698Y303802D01*
X225145Y302976D01*
X224951Y302000D01*
Y294815D01*
X225145Y293840D01*
X225698Y293013D01*
X248247Y270464D01*
X248055Y270002D01*
X232881D01*
X232757Y270163D01*
X231964Y270772D01*
X231039Y271155D01*
X230547Y271220D01*
Y267453D01*
Y263686D01*
X231039Y263751D01*
X231964Y264134D01*
X232757Y264743D01*
X232881Y264904D01*
X251779D01*
X252298Y264506D01*
X253271Y264103D01*
X253815Y264031D01*
Y268000D01*
Y272105D01*
X246589Y279331D01*
X246831Y279744D01*
X247878Y279311D01*
X249000Y279163D01*
X250122Y279311D01*
X251169Y279744D01*
X252067Y280433D01*
X252756Y281331D01*
X253189Y282378D01*
X253337Y283500D01*
X253189Y284623D01*
X252756Y285669D01*
X252067Y286567D01*
X251549Y286964D01*
Y289843D01*
X252176Y290324D01*
X252889Y291254D01*
X253338Y292338D01*
X253491Y293500D01*
X253338Y294662D01*
X252889Y295746D01*
X252176Y296676D01*
X251246Y297390D01*
X250162Y297838D01*
X249000Y297991D01*
X247838Y297838D01*
X246754Y297390D01*
X245824Y296676D01*
X245111Y295746D01*
X244662Y294662D01*
X244509Y293500D01*
X244662Y292338D01*
X245111Y291254D01*
X245824Y290324D01*
X246451Y289843D01*
Y286964D01*
X245933Y286567D01*
X245244Y285669D01*
X244811Y284623D01*
X244663Y283500D01*
X244811Y282378D01*
X245244Y281331D01*
X244831Y281089D01*
X230049Y295871D01*
Y300944D01*
X248500Y319395D01*
Y323000D01*
D02*
G37*
G36*
X258284Y267500D02*
X254815D01*
Y264031D01*
X255359Y264103D01*
X256332Y264506D01*
X257168Y265147D01*
X257809Y265983D01*
X258212Y266956D01*
X258284Y267500D01*
D02*
G37*
G36*
X483354Y254381D02*
X482180Y254227D01*
X481085Y253773D01*
X480145Y253052D01*
X479424Y252112D01*
X478970Y251017D01*
X478816Y249843D01*
X478970Y248668D01*
X479424Y247573D01*
X480145Y246633D01*
X481085Y245912D01*
X482180Y245458D01*
X483354Y245304D01*
X484529Y245458D01*
X485624Y245912D01*
X486564Y246633D01*
X487285Y247573D01*
X487739Y248668D01*
X487893Y249843D01*
X487739Y251017D01*
X487285Y252112D01*
X486564Y253052D01*
X485624Y253773D01*
X484529Y254227D01*
X483354Y254381D01*
D02*
G37*
G36*
X483854Y236095D02*
Y232626D01*
X487323D01*
X487252Y233170D01*
X486848Y234143D01*
X486207Y234979D01*
X485372Y235620D01*
X484399Y236023D01*
X483854Y236095D01*
D02*
G37*
G36*
X229547Y266953D02*
X226280D01*
X226345Y266461D01*
X226728Y265536D01*
X227337Y264743D01*
X228131Y264134D01*
X229055Y263751D01*
X229547Y263686D01*
Y266953D01*
D02*
G37*
G36*
X410744Y304593D02*
X409621Y304445D01*
X408575Y304012D01*
X407677Y303323D01*
X406988Y302425D01*
X406555Y301378D01*
X406407Y300256D01*
X406555Y299133D01*
X406988Y298087D01*
X407677Y297189D01*
X408195Y296792D01*
Y254151D01*
X407433Y253567D01*
X406744Y252669D01*
X406311Y251623D01*
X406163Y250500D01*
X406311Y249377D01*
X406744Y248331D01*
X407433Y247433D01*
X408331Y246744D01*
X409377Y246311D01*
X410500Y246163D01*
X411622Y246311D01*
X412669Y246744D01*
X413567Y247433D01*
X414256Y248331D01*
X414689Y249377D01*
X414837Y250500D01*
X414689Y251623D01*
X414256Y252669D01*
X413567Y253567D01*
X413293Y253777D01*
Y296792D01*
X413811Y297189D01*
X414500Y298087D01*
X414933Y299133D01*
X415081Y300256D01*
X414933Y301378D01*
X414500Y302425D01*
X413811Y303323D01*
X412913Y304012D01*
X411867Y304445D01*
X410744Y304593D01*
D02*
G37*
G36*
X399500Y195539D02*
X398325Y195384D01*
X397231Y194931D01*
X396291Y194209D01*
X395569Y193269D01*
X395116Y192175D01*
X394961Y191000D01*
X395116Y189825D01*
X395569Y188731D01*
X396291Y187791D01*
X397231Y187069D01*
X398325Y186616D01*
X399500Y186461D01*
X400675Y186616D01*
X401769Y187069D01*
X402709Y187791D01*
X403431Y188731D01*
X403884Y189825D01*
X404039Y191000D01*
X403884Y192175D01*
X403431Y193269D01*
X402709Y194209D01*
X401769Y194931D01*
X400675Y195384D01*
X399500Y195539D01*
D02*
G37*
G36*
X389500D02*
X388325Y195384D01*
X387231Y194931D01*
X386291Y194209D01*
X385569Y193269D01*
X385116Y192175D01*
X384961Y191000D01*
X385116Y189825D01*
X385569Y188731D01*
X386291Y187791D01*
X387231Y187069D01*
X388325Y186616D01*
X389500Y186461D01*
X390675Y186616D01*
X391769Y187069D01*
X392709Y187791D01*
X393431Y188731D01*
X393884Y189825D01*
X394039Y191000D01*
X393884Y192175D01*
X393431Y193269D01*
X392709Y194209D01*
X391769Y194931D01*
X390675Y195384D01*
X389500Y195539D01*
D02*
G37*
G36*
X324000Y195500D02*
X315000D01*
Y186500D01*
X324000D01*
Y195500D01*
D02*
G37*
G36*
X409500Y195539D02*
X408325Y195384D01*
X407231Y194931D01*
X406291Y194209D01*
X405569Y193269D01*
X405116Y192175D01*
X404961Y191000D01*
X405116Y189825D01*
X405569Y188731D01*
X406291Y187791D01*
X407231Y187069D01*
X408325Y186616D01*
X409500Y186461D01*
X410675Y186616D01*
X411769Y187069D01*
X412709Y187791D01*
X413431Y188731D01*
X413884Y189825D01*
X414039Y191000D01*
X413884Y192175D01*
X413431Y193269D01*
X412709Y194209D01*
X411769Y194931D01*
X410675Y195384D01*
X409500Y195539D01*
D02*
G37*
G36*
X379500D02*
X378325Y195384D01*
X377231Y194931D01*
X376291Y194209D01*
X375569Y193269D01*
X375116Y192175D01*
X374961Y191000D01*
X375116Y189825D01*
X375569Y188731D01*
X376291Y187791D01*
X377231Y187069D01*
X378325Y186616D01*
X379500Y186461D01*
X380675Y186616D01*
X381769Y187069D01*
X382709Y187791D01*
X383431Y188731D01*
X383884Y189825D01*
X384039Y191000D01*
X383884Y192175D01*
X383431Y193269D01*
X382709Y194209D01*
X381769Y194931D01*
X380675Y195384D01*
X379500Y195539D01*
D02*
G37*
G36*
X293500D02*
X292325Y195384D01*
X291231Y194931D01*
X290291Y194209D01*
X289569Y193269D01*
X289116Y192175D01*
X288961Y191000D01*
X289116Y189825D01*
X289569Y188731D01*
X290291Y187791D01*
X291231Y187069D01*
X292325Y186616D01*
X293500Y186461D01*
X294675Y186616D01*
X295769Y187069D01*
X296709Y187791D01*
X297431Y188731D01*
X297884Y189825D01*
X298039Y191000D01*
X297884Y192175D01*
X297431Y193269D01*
X296709Y194209D01*
X295769Y194931D01*
X294675Y195384D01*
X293500Y195539D01*
D02*
G37*
G36*
X283500D02*
X282325Y195384D01*
X281231Y194931D01*
X280291Y194209D01*
X279569Y193269D01*
X279116Y192175D01*
X278961Y191000D01*
X279116Y189825D01*
X279569Y188731D01*
X280291Y187791D01*
X281231Y187069D01*
X282325Y186616D01*
X283500Y186461D01*
X284675Y186616D01*
X285769Y187069D01*
X286709Y187791D01*
X287431Y188731D01*
X287884Y189825D01*
X288039Y191000D01*
X287884Y192175D01*
X287431Y193269D01*
X286709Y194209D01*
X285769Y194931D01*
X284675Y195384D01*
X283500Y195539D01*
D02*
G37*
G36*
X369500D02*
X368325Y195384D01*
X367231Y194931D01*
X366291Y194209D01*
X365569Y193269D01*
X365116Y192175D01*
X364961Y191000D01*
X365116Y189825D01*
X365569Y188731D01*
X366291Y187791D01*
X367231Y187069D01*
X368325Y186616D01*
X369500Y186461D01*
X370675Y186616D01*
X371769Y187069D01*
X372709Y187791D01*
X373431Y188731D01*
X373884Y189825D01*
X374039Y191000D01*
X373884Y192175D01*
X373431Y193269D01*
X372709Y194209D01*
X371769Y194931D01*
X370675Y195384D01*
X369500Y195539D01*
D02*
G37*
G36*
X303500D02*
X302325Y195384D01*
X301231Y194931D01*
X300291Y194209D01*
X299569Y193269D01*
X299116Y192175D01*
X298961Y191000D01*
X299116Y189825D01*
X299569Y188731D01*
X300291Y187791D01*
X301231Y187069D01*
X302325Y186616D01*
X303500Y186461D01*
X304675Y186616D01*
X305769Y187069D01*
X306709Y187791D01*
X307431Y188731D01*
X307884Y189825D01*
X308039Y191000D01*
X307884Y192175D01*
X307431Y193269D01*
X306709Y194209D01*
X305769Y194931D01*
X304675Y195384D01*
X303500Y195539D01*
D02*
G37*
G36*
X229547Y208220D02*
X229055Y208155D01*
X228131Y207772D01*
X227337Y207163D01*
X226728Y206369D01*
X226345Y205445D01*
X226280Y204953D01*
X229547D01*
Y208220D01*
D02*
G37*
G36*
Y203953D02*
X226280D01*
X226345Y203461D01*
X226728Y202536D01*
X227337Y201743D01*
X228131Y201133D01*
X229055Y200751D01*
X229547Y200686D01*
Y203953D01*
D02*
G37*
G36*
X251000Y221190D02*
X249786Y221030D01*
X248655Y220561D01*
X247684Y219816D01*
X246939Y218845D01*
X246470Y217714D01*
X246310Y216500D01*
X246470Y215286D01*
X246939Y214155D01*
X247684Y213184D01*
X248146Y212829D01*
X248179Y212331D01*
X247100Y211252D01*
X246453Y211337D01*
X245330Y211189D01*
X244284Y210756D01*
X243386Y210067D01*
X242697Y209169D01*
X242264Y208122D01*
X242116Y207000D01*
X242264Y205877D01*
X242697Y204831D01*
X243386Y203933D01*
X244284Y203244D01*
X245330Y202811D01*
X246453Y202663D01*
X247575Y202811D01*
X248621Y203244D01*
X249520Y203933D01*
X250209Y204831D01*
X250642Y205877D01*
X250790Y207000D01*
X250705Y207647D01*
X252802Y209745D01*
X253355Y210572D01*
X253549Y211547D01*
Y212595D01*
X254316Y213184D01*
X255061Y214155D01*
X255530Y215286D01*
X255690Y216500D01*
X255530Y217714D01*
X255061Y218845D01*
X254316Y219816D01*
X253345Y220561D01*
X252214Y221030D01*
X251000Y221190D01*
D02*
G37*
G36*
X230547Y208220D02*
Y204953D01*
X233814D01*
X233749Y205445D01*
X233366Y206369D01*
X232757Y207163D01*
X231964Y207772D01*
X231039Y208155D01*
X230547Y208220D01*
D02*
G37*
G36*
X254000Y194969D02*
Y191500D01*
X257469D01*
X257397Y192044D01*
X256994Y193017D01*
X256353Y193853D01*
X255517Y194494D01*
X254544Y194897D01*
X254000Y194969D01*
D02*
G37*
G36*
X257469Y190500D02*
X254000D01*
Y187031D01*
X254544Y187103D01*
X255517Y187506D01*
X256353Y188147D01*
X256994Y188983D01*
X257397Y189956D01*
X257469Y190500D01*
D02*
G37*
G36*
X243000D02*
X239531D01*
X239603Y189956D01*
X240006Y188983D01*
X240647Y188147D01*
X241483Y187506D01*
X242456Y187103D01*
X243000Y187031D01*
Y190500D01*
D02*
G37*
G36*
X234152Y203953D02*
X230547D01*
Y200348D01*
X234933Y195962D01*
X234742Y195500D01*
X229000D01*
Y186500D01*
X238000D01*
Y192242D01*
X238462Y192433D01*
X239395Y191500D01*
X243000D01*
Y195105D01*
X234152Y203953D01*
D02*
G37*
G36*
X244000Y194969D02*
Y191000D01*
Y187031D01*
X244544Y187103D01*
X245517Y187506D01*
X246353Y188147D01*
X246586Y188451D01*
X250166D01*
X250290Y188290D01*
X251084Y187681D01*
X251456Y187526D01*
X251483Y187506D01*
X252456Y187103D01*
X252500Y187097D01*
Y191000D01*
Y194903D01*
X252456Y194897D01*
X251483Y194494D01*
X251456Y194474D01*
X251084Y194319D01*
X250290Y193710D01*
X250166Y193549D01*
X246586D01*
X246353Y193853D01*
X245517Y194494D01*
X244544Y194897D01*
X244000Y194969D01*
D02*
G37*
G36*
Y385539D02*
X242825Y385384D01*
X241731Y384931D01*
X240791Y384209D01*
X240069Y383269D01*
X239616Y382175D01*
X239461Y381000D01*
X239616Y379825D01*
X240069Y378731D01*
X240791Y377791D01*
X241731Y377069D01*
X242825Y376616D01*
X244000Y376461D01*
X245175Y376616D01*
X246269Y377069D01*
X247209Y377791D01*
X247931Y378731D01*
X248384Y379825D01*
X248539Y381000D01*
X248384Y382175D01*
X247931Y383269D01*
X247209Y384209D01*
X246269Y384931D01*
X245175Y385384D01*
X244000Y385539D01*
D02*
G37*
G36*
X234000D02*
X232825Y385384D01*
X231731Y384931D01*
X230791Y384209D01*
X230069Y383269D01*
X229616Y382175D01*
X229461Y381000D01*
X229616Y379825D01*
X230069Y378731D01*
X230791Y377791D01*
X231731Y377069D01*
X232825Y376616D01*
X234000Y376461D01*
X235175Y376616D01*
X236269Y377069D01*
X237209Y377791D01*
X237931Y378731D01*
X238384Y379825D01*
X238539Y381000D01*
X238384Y382175D01*
X237931Y383269D01*
X237209Y384209D01*
X236269Y384931D01*
X235175Y385384D01*
X234000Y385539D01*
D02*
G37*
G36*
X264000D02*
X262825Y385384D01*
X261731Y384931D01*
X260791Y384209D01*
X260069Y383269D01*
X259616Y382175D01*
X259461Y381000D01*
X259616Y379825D01*
X260069Y378731D01*
X260791Y377791D01*
X261731Y377069D01*
X262825Y376616D01*
X264000Y376461D01*
X265175Y376616D01*
X266269Y377069D01*
X267209Y377791D01*
X267931Y378731D01*
X268384Y379825D01*
X268539Y381000D01*
X268384Y382175D01*
X267931Y383269D01*
X267209Y384209D01*
X266269Y384931D01*
X265175Y385384D01*
X264000Y385539D01*
D02*
G37*
G36*
X254000D02*
X252825Y385384D01*
X251731Y384931D01*
X250791Y384209D01*
X250069Y383269D01*
X249616Y382175D01*
X249461Y381000D01*
X249616Y379825D01*
X250069Y378731D01*
X250791Y377791D01*
X251731Y377069D01*
X252825Y376616D01*
X254000Y376461D01*
X255175Y376616D01*
X256269Y377069D01*
X257209Y377791D01*
X257931Y378731D01*
X258384Y379825D01*
X258539Y381000D01*
X258384Y382175D01*
X257931Y383269D01*
X257209Y384209D01*
X256269Y384931D01*
X255175Y385384D01*
X254000Y385539D01*
D02*
G37*
G36*
X468043Y365732D02*
X451264D01*
Y346984D01*
X468043D01*
Y365732D01*
D02*
G37*
G36*
X452067Y342611D02*
X451523Y342539D01*
X450550Y342136D01*
X449714Y341495D01*
X449073Y340659D01*
X448670Y339686D01*
X448598Y339142D01*
X452067D01*
Y342611D01*
D02*
G37*
G36*
Y338142D02*
X448598D01*
X448670Y337598D01*
X449073Y336625D01*
X449714Y335789D01*
X450550Y335148D01*
X451523Y334745D01*
X452067Y334673D01*
Y338142D01*
D02*
G37*
G36*
X424736Y365732D02*
X407957D01*
Y346984D01*
X424736D01*
Y365732D01*
D02*
G37*
G36*
X453067Y342611D02*
Y339142D01*
X456536D01*
X456464Y339686D01*
X456061Y340659D01*
X455420Y341495D01*
X454584Y342136D01*
X453611Y342539D01*
X453067Y342611D01*
D02*
G37*
G36*
X288500Y385500D02*
X279500D01*
Y376500D01*
X288500D01*
Y385500D01*
D02*
G37*
G36*
X373000Y385539D02*
X371825Y385384D01*
X370731Y384931D01*
X369791Y384209D01*
X369069Y383269D01*
X368616Y382175D01*
X368461Y381000D01*
X368616Y379825D01*
X369069Y378731D01*
X369791Y377791D01*
X370731Y377069D01*
X371825Y376616D01*
X373000Y376461D01*
X374175Y376616D01*
X375269Y377069D01*
X376209Y377791D01*
X376931Y378731D01*
X377384Y379825D01*
X377539Y381000D01*
X377384Y382175D01*
X376931Y383269D01*
X376209Y384209D01*
X375269Y384931D01*
X374175Y385384D01*
X373000Y385539D01*
D02*
G37*
G36*
X343000D02*
X341825Y385384D01*
X340731Y384931D01*
X339791Y384209D01*
X339069Y383269D01*
X338616Y382175D01*
X338461Y381000D01*
X338616Y379825D01*
X338707Y379605D01*
X338283Y379322D01*
X337430Y380175D01*
X337539Y381000D01*
X337384Y382175D01*
X336931Y383269D01*
X336209Y384209D01*
X335269Y384931D01*
X334175Y385384D01*
X333000Y385539D01*
X331825Y385384D01*
X330731Y384931D01*
X329791Y384209D01*
X329069Y383269D01*
X328616Y382175D01*
X328461Y381000D01*
X328616Y379825D01*
X329069Y378731D01*
X329791Y377791D01*
X330731Y377069D01*
X331825Y376616D01*
X333000Y376461D01*
X333825Y376570D01*
X347698Y362698D01*
X348524Y362145D01*
X349500Y361951D01*
X350444D01*
X377451Y334944D01*
Y245964D01*
X376933Y245567D01*
X376244Y244669D01*
X375811Y243622D01*
X375663Y242500D01*
X375811Y241377D01*
X376244Y240331D01*
X376933Y239433D01*
X377831Y238744D01*
X378877Y238311D01*
X380000Y238163D01*
X381122Y238311D01*
X382169Y238744D01*
X383067Y239433D01*
X383756Y240331D01*
X384189Y241377D01*
X384337Y242500D01*
X384189Y243622D01*
X383756Y244669D01*
X383067Y245567D01*
X382549Y245964D01*
Y336000D01*
X382355Y336976D01*
X381802Y337802D01*
X353302Y366302D01*
X352476Y366855D01*
X351500Y367049D01*
X350556D01*
X341321Y376283D01*
X341605Y376707D01*
X341825Y376616D01*
X343000Y376461D01*
X344175Y376616D01*
X345269Y377069D01*
X346209Y377791D01*
X346931Y378731D01*
X347384Y379825D01*
X347539Y381000D01*
X347384Y382175D01*
X346931Y383269D01*
X346209Y384209D01*
X345269Y384931D01*
X344175Y385384D01*
X343000Y385539D01*
D02*
G37*
G36*
X307500Y385500D02*
X298500D01*
Y376500D01*
X307500D01*
Y385500D01*
D02*
G37*
G36*
X363000Y385539D02*
X361825Y385384D01*
X360731Y384931D01*
X359791Y384209D01*
X359069Y383269D01*
X358616Y382175D01*
X358461Y381000D01*
X358616Y379825D01*
X359069Y378731D01*
X359791Y377791D01*
X360731Y377069D01*
X361825Y376616D01*
X363000Y376461D01*
X364175Y376616D01*
X365269Y377069D01*
X366209Y377791D01*
X366931Y378731D01*
X367384Y379825D01*
X367539Y381000D01*
X367384Y382175D01*
X366931Y383269D01*
X366209Y384209D01*
X365269Y384931D01*
X364175Y385384D01*
X363000Y385539D01*
D02*
G37*
G36*
X313000D02*
X311825Y385384D01*
X310731Y384931D01*
X309791Y384209D01*
X309069Y383269D01*
X308616Y382175D01*
X308461Y381000D01*
X308616Y379825D01*
X309069Y378731D01*
X309791Y377791D01*
X310731Y377069D01*
X311825Y376616D01*
X313000Y376461D01*
X314175Y376616D01*
X315269Y377069D01*
X316209Y377791D01*
X316931Y378731D01*
X317384Y379825D01*
X317539Y381000D01*
X317384Y382175D01*
X316931Y383269D01*
X316209Y384209D01*
X315269Y384931D01*
X314175Y385384D01*
X313000Y385539D01*
D02*
G37*
G36*
X274000D02*
X272825Y385384D01*
X271731Y384931D01*
X270791Y384209D01*
X270069Y383269D01*
X269616Y382175D01*
X269461Y381000D01*
X269616Y379825D01*
X270069Y378731D01*
X270791Y377791D01*
X271731Y377069D01*
X272825Y376616D01*
X274000Y376461D01*
X275175Y376616D01*
X276269Y377069D01*
X277209Y377791D01*
X277931Y378731D01*
X278384Y379825D01*
X278539Y381000D01*
X278384Y382175D01*
X277931Y383269D01*
X277209Y384209D01*
X276269Y384931D01*
X275175Y385384D01*
X274000Y385539D01*
D02*
G37*
G36*
X353000D02*
X351825Y385384D01*
X350731Y384931D01*
X349791Y384209D01*
X349069Y383269D01*
X348616Y382175D01*
X348461Y381000D01*
X348616Y379825D01*
X349069Y378731D01*
X349791Y377791D01*
X350731Y377069D01*
X351825Y376616D01*
X353000Y376461D01*
X354175Y376616D01*
X355269Y377069D01*
X356209Y377791D01*
X356931Y378731D01*
X357384Y379825D01*
X357539Y381000D01*
X357384Y382175D01*
X356931Y383269D01*
X356209Y384209D01*
X355269Y384931D01*
X354175Y385384D01*
X353000Y385539D01*
D02*
G37*
G36*
X323000D02*
X321825Y385384D01*
X320731Y384931D01*
X319791Y384209D01*
X319069Y383269D01*
X318616Y382175D01*
X318461Y381000D01*
X318616Y379825D01*
X319069Y378731D01*
X319791Y377791D01*
X320731Y377069D01*
X321825Y376616D01*
X323000Y376461D01*
X324175Y376616D01*
X325269Y377069D01*
X326209Y377791D01*
X326931Y378731D01*
X327384Y379825D01*
X327539Y381000D01*
X327384Y382175D01*
X326931Y383269D01*
X326209Y384209D01*
X325269Y384931D01*
X324175Y385384D01*
X323000Y385539D01*
D02*
G37*
G36*
X437803Y343181D02*
X436628Y343026D01*
X435534Y342572D01*
X434594Y341851D01*
X433873Y340911D01*
X433419Y339816D01*
X433264Y338642D01*
X433419Y337467D01*
X433873Y336372D01*
X434594Y335432D01*
X435534Y334711D01*
X436628Y334258D01*
X437803Y334103D01*
X438978Y334258D01*
X440073Y334711D01*
X441013Y335432D01*
X441734Y336372D01*
X442187Y337467D01*
X442342Y338642D01*
X442187Y339816D01*
X441734Y340911D01*
X441013Y341851D01*
X440073Y342572D01*
X438978Y343026D01*
X437803Y343181D01*
D02*
G37*
G36*
X445000Y321793D02*
X443889Y321646D01*
X442854Y321217D01*
X441965Y320535D01*
X441283Y319646D01*
X440854Y318611D01*
X440707Y317500D01*
X440854Y316389D01*
X441283Y315354D01*
X441965Y314465D01*
X442854Y313783D01*
X443889Y313354D01*
X445000Y313207D01*
X446111Y313354D01*
X447146Y313783D01*
X448035Y314465D01*
X448717Y315354D01*
X449146Y316389D01*
X449293Y317500D01*
X449146Y318611D01*
X448717Y319646D01*
X448035Y320535D01*
X447146Y321217D01*
X446111Y321646D01*
X445000Y321793D01*
D02*
G37*
G36*
X432000D02*
X430889Y321646D01*
X429854Y321217D01*
X428965Y320535D01*
X428282Y319646D01*
X427854Y318611D01*
X427707Y317500D01*
X427854Y316389D01*
X428282Y315354D01*
X428965Y314465D01*
X429854Y313783D01*
X430889Y313354D01*
X432000Y313207D01*
X433111Y313354D01*
X434146Y313783D01*
X435035Y314465D01*
X435717Y315354D01*
X436146Y316389D01*
X436293Y317500D01*
X436146Y318611D01*
X435717Y319646D01*
X435035Y320535D01*
X434146Y321217D01*
X433111Y321646D01*
X432000Y321793D01*
D02*
G37*
G36*
X371000Y319267D02*
Y316000D01*
X374267D01*
X374202Y316492D01*
X373819Y317416D01*
X373210Y318210D01*
X372416Y318819D01*
X371492Y319202D01*
X371000Y319267D01*
D02*
G37*
G36*
X475000Y321793D02*
X473889Y321646D01*
X472854Y321217D01*
X471965Y320535D01*
X471282Y319646D01*
X470854Y318611D01*
X470707Y317500D01*
X470854Y316389D01*
X471282Y315354D01*
X471965Y314465D01*
X472854Y313783D01*
X473889Y313354D01*
X475000Y313207D01*
X476111Y313354D01*
X477146Y313783D01*
X478035Y314465D01*
X478718Y315354D01*
X479146Y316389D01*
X479293Y317500D01*
X479146Y318611D01*
X478718Y319646D01*
X478035Y320535D01*
X477146Y321217D01*
X476111Y321646D01*
X475000Y321793D01*
D02*
G37*
G36*
X346567Y316142D02*
X343098D01*
X343170Y315598D01*
X343573Y314625D01*
X344214Y313789D01*
X345050Y313148D01*
X346023Y312745D01*
X346567Y312673D01*
Y316142D01*
D02*
G37*
G36*
X347567Y320610D02*
Y316642D01*
Y312673D01*
X348111Y312745D01*
X349084Y313148D01*
X349920Y313789D01*
X350153Y314093D01*
X366970D01*
X367181Y313584D01*
X367790Y312790D01*
X368584Y312181D01*
X369508Y311798D01*
X370000Y311733D01*
Y315500D01*
Y319267D01*
X369508Y319202D01*
X369441Y319174D01*
X369358Y319191D01*
X350153D01*
X349920Y319495D01*
X349084Y320136D01*
X348111Y320539D01*
X347567Y320610D01*
D02*
G37*
G36*
X440953Y300267D02*
Y297000D01*
X444220D01*
X444155Y297492D01*
X443772Y298416D01*
X443163Y299210D01*
X442369Y299819D01*
X441445Y300202D01*
X440953Y300267D01*
D02*
G37*
G36*
X323500Y355049D02*
X294000D01*
X293024Y354855D01*
X292198Y354302D01*
X291645Y353475D01*
X291451Y352500D01*
Y319556D01*
X269783Y297888D01*
X269000Y297991D01*
X267838Y297838D01*
X266754Y297390D01*
X265824Y296676D01*
X265110Y295746D01*
X264662Y294662D01*
X264509Y293500D01*
X264662Y292338D01*
X265110Y291254D01*
X265824Y290324D01*
X266754Y289611D01*
X267838Y289162D01*
X269000Y289009D01*
X270162Y289162D01*
X271246Y289611D01*
X272176Y290324D01*
X272889Y291254D01*
X273338Y292338D01*
X273491Y293500D01*
X273388Y294283D01*
X274371Y295266D01*
X274795Y294983D01*
X274662Y294662D01*
X274509Y293500D01*
X274662Y292338D01*
X275111Y291254D01*
X275824Y290324D01*
X276451Y289843D01*
Y274056D01*
X274825Y272430D01*
X274000Y272539D01*
X272825Y272384D01*
X271731Y271931D01*
X270791Y271209D01*
X270069Y270269D01*
X269616Y269175D01*
X269461Y268000D01*
X269616Y266825D01*
X270069Y265731D01*
X270791Y264791D01*
X271451Y264284D01*
Y202556D01*
X264325Y195430D01*
X263500Y195539D01*
X262325Y195384D01*
X261231Y194931D01*
X260291Y194209D01*
X259569Y193269D01*
X259116Y192175D01*
X258961Y191000D01*
X259116Y189825D01*
X259569Y188731D01*
X260291Y187791D01*
X261231Y187069D01*
X262325Y186616D01*
X263500Y186461D01*
X264675Y186616D01*
X265769Y187069D01*
X266709Y187791D01*
X267431Y188731D01*
X267884Y189825D01*
X268039Y191000D01*
X267930Y191825D01*
X268783Y192678D01*
X269207Y192395D01*
X269116Y192175D01*
X268961Y191000D01*
X269116Y189825D01*
X269569Y188731D01*
X270291Y187791D01*
X271231Y187069D01*
X272325Y186616D01*
X273500Y186461D01*
X274675Y186616D01*
X275769Y187069D01*
X276709Y187791D01*
X277431Y188731D01*
X277884Y189825D01*
X278039Y191000D01*
X277884Y192175D01*
X277431Y193269D01*
X276709Y194209D01*
X275769Y194931D01*
X274675Y195384D01*
X273500Y195539D01*
X272325Y195384D01*
X272105Y195293D01*
X271821Y195717D01*
X275802Y199698D01*
X276355Y200524D01*
X276549Y201500D01*
Y264284D01*
X277209Y264791D01*
X277931Y265731D01*
X278384Y266825D01*
X278539Y268000D01*
X278430Y268825D01*
X280802Y271198D01*
X281355Y272024D01*
X281549Y273000D01*
Y289843D01*
X282176Y290324D01*
X282657Y290951D01*
X294398D01*
X295373Y291145D01*
X296200Y291698D01*
X316714Y312212D01*
X317539Y312103D01*
X318714Y312258D01*
X319809Y312711D01*
X320749Y313432D01*
X321470Y314372D01*
X321924Y315467D01*
X322078Y316642D01*
X321924Y317816D01*
X321470Y318911D01*
X320749Y319851D01*
X319809Y320572D01*
X318714Y321026D01*
X317539Y321181D01*
X316365Y321026D01*
X315270Y320572D01*
X314330Y319851D01*
X313609Y318911D01*
X313155Y317816D01*
X313001Y316642D01*
X313109Y315816D01*
X293342Y296049D01*
X282657D01*
X282176Y296676D01*
X281246Y297390D01*
X280162Y297838D01*
X279000Y297991D01*
X277838Y297838D01*
X277517Y297706D01*
X277234Y298129D01*
X295802Y316698D01*
X296355Y317525D01*
X296549Y318500D01*
Y349951D01*
X322444D01*
X329754Y342641D01*
Y320358D01*
X329094Y319851D01*
X328373Y318911D01*
X327919Y317816D01*
X327764Y316642D01*
X327919Y315467D01*
X328373Y314372D01*
X329094Y313432D01*
X330034Y312711D01*
X331129Y312258D01*
X332303Y312103D01*
X333478Y312258D01*
X334573Y312711D01*
X335513Y313432D01*
X336234Y314372D01*
X336687Y315467D01*
X336842Y316642D01*
X336687Y317816D01*
X336234Y318911D01*
X335513Y319851D01*
X334852Y320358D01*
Y343697D01*
X334658Y344672D01*
X334106Y345499D01*
X325302Y354302D01*
X324476Y354855D01*
X323500Y355049D01*
D02*
G37*
G36*
X374267Y315000D02*
X371000D01*
Y311733D01*
X371492Y311798D01*
X372416Y312181D01*
X373210Y312790D01*
X373819Y313584D01*
X374202Y314508D01*
X374267Y315000D01*
D02*
G37*
G36*
X339000Y361049D02*
X251000D01*
X250025Y360855D01*
X249198Y360302D01*
X247198Y358302D01*
X246645Y357475D01*
X246451Y356500D01*
Y326526D01*
X246181Y326319D01*
X245547Y325493D01*
X245149Y324532D01*
X245079Y324000D01*
X252921D01*
X252851Y324532D01*
X252453Y325493D01*
X251819Y326319D01*
X251549Y326526D01*
Y355444D01*
X252056Y355951D01*
X336451D01*
Y324709D01*
X336645Y323733D01*
X337198Y322906D01*
X342962Y317142D01*
X346567D01*
Y320747D01*
X341549Y325765D01*
Y358500D01*
X341355Y359475D01*
X340802Y360302D01*
X339976Y360855D01*
X339000Y361049D01*
D02*
G37*
G36*
X362543Y343732D02*
X345764D01*
Y324984D01*
X362543D01*
Y343732D01*
D02*
G37*
G36*
X319236D02*
X302457D01*
Y324984D01*
X319236D01*
Y343732D01*
D02*
G37*
G36*
X423039Y343181D02*
X421865Y343026D01*
X420770Y342572D01*
X419830Y341851D01*
X419109Y340911D01*
X418655Y339816D01*
X418501Y338642D01*
X418609Y337816D01*
X402517Y321725D01*
X402000Y321793D01*
X400889Y321646D01*
X399854Y321217D01*
X398965Y320535D01*
X398283Y319646D01*
X397854Y318611D01*
X397707Y317500D01*
X397854Y316389D01*
X398283Y315354D01*
X398965Y314465D01*
X399854Y313783D01*
X400889Y313354D01*
X402000Y313207D01*
X403111Y313354D01*
X404146Y313783D01*
X405035Y314465D01*
X405718Y315354D01*
X406146Y316389D01*
X406293Y317500D01*
X406201Y318198D01*
X422214Y334212D01*
X423039Y334103D01*
X424214Y334258D01*
X425309Y334711D01*
X426249Y335432D01*
X426970Y336372D01*
X427424Y337467D01*
X427578Y338642D01*
X427424Y339816D01*
X426970Y340911D01*
X426249Y341851D01*
X425309Y342572D01*
X424214Y343026D01*
X423039Y343181D01*
D02*
G37*
G36*
X277000Y346039D02*
X275825Y345884D01*
X274731Y345431D01*
X273791Y344709D01*
X273069Y343769D01*
X272616Y342675D01*
X272461Y341500D01*
X272570Y340675D01*
X259783Y327888D01*
X259000Y327991D01*
X257838Y327838D01*
X256754Y327390D01*
X255824Y326676D01*
X255111Y325746D01*
X254662Y324662D01*
X254509Y323500D01*
X254662Y322338D01*
X255111Y321254D01*
X255824Y320324D01*
X256754Y319611D01*
X257838Y319162D01*
X259000Y319009D01*
X260162Y319162D01*
X261246Y319611D01*
X262176Y320324D01*
X262890Y321254D01*
X263338Y322338D01*
X263491Y323500D01*
X263388Y324283D01*
X264371Y325266D01*
X264794Y324983D01*
X264662Y324662D01*
X264509Y323500D01*
X264662Y322338D01*
X265110Y321254D01*
X265824Y320324D01*
X266754Y319611D01*
X267838Y319162D01*
X269000Y319009D01*
X270162Y319162D01*
X271246Y319611D01*
X272176Y320324D01*
X272889Y321254D01*
X273338Y322338D01*
X273491Y323500D01*
X273388Y324283D01*
X274085Y324980D01*
X274547Y324789D01*
Y319047D01*
X283453D01*
Y327953D01*
X277711D01*
X277519Y328415D01*
X279353Y330248D01*
X280000Y330163D01*
X281122Y330311D01*
X282169Y330744D01*
X283067Y331433D01*
X283756Y332331D01*
X284189Y333378D01*
X284337Y334500D01*
X284189Y335623D01*
X283756Y336669D01*
X283067Y337567D01*
X282169Y338256D01*
X281140Y338682D01*
X281058Y338718D01*
X280875Y339159D01*
X280931Y339231D01*
X281384Y340325D01*
X281539Y341500D01*
X281384Y342675D01*
X280931Y343769D01*
X280209Y344709D01*
X279269Y345431D01*
X278175Y345884D01*
X277000Y346039D01*
D02*
G37*
G36*
X461000Y323000D02*
X457733D01*
X457798Y322508D01*
X458181Y321584D01*
X458790Y320790D01*
X459584Y320181D01*
X460508Y319798D01*
X461000Y319733D01*
Y323000D01*
D02*
G37*
G36*
X252921D02*
X249500D01*
Y319579D01*
X250032Y319649D01*
X250993Y320047D01*
X251819Y320681D01*
X252453Y321507D01*
X252851Y322468D01*
X252921Y323000D01*
D02*
G37*
G36*
X465267D02*
X462000D01*
Y319733D01*
X462492Y319798D01*
X463416Y320181D01*
X464210Y320790D01*
X464819Y321584D01*
X465202Y322508D01*
X465267Y323000D01*
D02*
G37*
G36*
X456672Y338142D02*
X453067D01*
Y334537D01*
X458951Y328653D01*
Y326334D01*
X458790Y326210D01*
X458181Y325416D01*
X457798Y324492D01*
X457733Y324000D01*
X465267D01*
X465202Y324492D01*
X464819Y325416D01*
X464210Y326210D01*
X464049Y326334D01*
Y329709D01*
X463855Y330684D01*
X463302Y331511D01*
X456672Y338142D01*
D02*
G37*
%LPD*%
G36*
X379077Y224265D02*
X378811Y223622D01*
X378663Y222500D01*
X378748Y221853D01*
X364944Y208049D01*
X354000D01*
X353025Y207855D01*
X352198Y207302D01*
X340325Y195430D01*
X339500Y195539D01*
X338325Y195384D01*
X338105Y195293D01*
X337822Y195717D01*
X351556Y209451D01*
X362500D01*
X363475Y209645D01*
X364302Y210198D01*
X378653Y224548D01*
X379077Y224265D01*
D02*
G37*
D15*
X243500Y191000D02*
X253000D01*
X230047Y204453D02*
X243500Y191000D01*
X246453Y207000D02*
X251000Y211547D01*
Y216500D01*
X230047Y267453D02*
X253768D01*
X227500Y294815D02*
X254315Y268000D01*
X227500Y294815D02*
Y302000D01*
X249000Y323500D01*
X259000Y273157D02*
Y293500D01*
Y273157D02*
X264157Y268000D01*
X279000Y273000D02*
Y293500D01*
X274000Y268000D02*
X279000Y273000D01*
X274000Y201500D02*
Y268000D01*
X263500Y191000D02*
X274000Y201500D01*
X372500D02*
X383500Y212500D01*
X360000Y201500D02*
X372500D01*
X349500Y191000D02*
X360000Y201500D01*
X366000Y205500D02*
X383000Y222500D01*
X354000Y205500D02*
X366000D01*
X339500Y191000D02*
X354000Y205500D01*
X362500Y212000D02*
X383000Y232500D01*
X350500Y212000D02*
X362500D01*
X329500Y191000D02*
X350500Y212000D01*
X279000Y293500D02*
X294398D01*
X317539Y316642D01*
X269000Y323500D02*
X280000Y334500D01*
X461500Y323500D02*
Y329709D01*
X452567Y338642D02*
X461500Y329709D01*
X402000Y317602D02*
X423039Y338642D01*
X402000Y317500D02*
Y317602D01*
X369358Y316642D02*
X370500Y315500D01*
X347067Y316642D02*
X369358D01*
X259000Y323500D02*
X277000Y341500D01*
X333000Y381000D02*
X349500Y364500D01*
X351500D01*
X380000Y336000D01*
Y242500D02*
Y336000D01*
X410744Y250744D02*
Y300256D01*
X410500Y250500D02*
X410744Y250744D01*
X440453Y237453D02*
Y296500D01*
Y237453D02*
X445780Y232126D01*
X249000Y283500D02*
Y293500D01*
X238500Y236000D02*
X248000Y226500D01*
X251000D01*
X339000Y324709D02*
X347067Y316642D01*
X339000Y324709D02*
Y358500D01*
X251000D02*
X339000D01*
X249000Y356500D02*
X251000Y358500D01*
X249000Y323500D02*
Y356500D01*
X332303Y316642D02*
Y343697D01*
X323500Y352500D02*
X332303Y343697D01*
X294000Y352500D02*
X323500D01*
X294000Y318500D02*
Y352500D01*
X269000Y293500D02*
X294000Y318500D01*
D16*
X310846Y334358D02*
D03*
X354154D02*
D03*
X416346Y356358D02*
D03*
X459654D02*
D03*
D17*
X332303Y316642D02*
D03*
X347067D02*
D03*
X317539D02*
D03*
X274000Y268000D02*
D03*
X264157D02*
D03*
X254315D02*
D03*
X323000Y381000D02*
D03*
X313000D02*
D03*
X373000D02*
D03*
X363000D02*
D03*
X353000D02*
D03*
X343000D02*
D03*
X333000D02*
D03*
X234000D02*
D03*
X244000D02*
D03*
X254000D02*
D03*
X264000D02*
D03*
X274000D02*
D03*
X437803Y338642D02*
D03*
X452567D02*
D03*
X423039D02*
D03*
X253500Y191000D02*
D03*
X243500D02*
D03*
X303500D02*
D03*
X293500D02*
D03*
X283500D02*
D03*
X273500D02*
D03*
X263500D02*
D03*
X409500D02*
D03*
X399500D02*
D03*
X389500D02*
D03*
X379500D02*
D03*
X369500D02*
D03*
X359500D02*
D03*
X349500D02*
D03*
X339500D02*
D03*
X329500D02*
D03*
X483354Y232126D02*
D03*
Y249843D02*
D03*
D18*
X279000Y323500D02*
D03*
D19*
X269000D02*
D03*
X259000D02*
D03*
X249000D02*
D03*
X279000Y293500D02*
D03*
X269000D02*
D03*
X259000D02*
D03*
X249000D02*
D03*
D20*
X303000Y381000D02*
D03*
X284000D02*
D03*
X233500Y191000D02*
D03*
X319500D02*
D03*
D21*
X402000Y317500D02*
D03*
X432000D02*
D03*
X445000D02*
D03*
X475000D02*
D03*
D22*
X251000Y216500D02*
D03*
Y226500D02*
D03*
D23*
X277000Y341500D02*
D03*
D24*
X253000Y191000D02*
D03*
X230047Y204453D02*
D03*
X246453Y207000D02*
D03*
X230047Y267453D02*
D03*
X383500Y212500D02*
D03*
X383000Y222500D02*
D03*
Y232500D02*
D03*
X280000Y334500D02*
D03*
X461500Y323500D02*
D03*
X370500Y315500D02*
D03*
X380000Y242500D02*
D03*
X410744Y300256D02*
D03*
X410500Y250500D02*
D03*
X440453Y296500D02*
D03*
X445780Y232126D02*
D03*
X249000Y283500D02*
D03*
X238500Y236000D02*
D03*
M02*
