G04 Layer_Physical_Order=1*
G04 Layer_Color=255*
%FSAX25Y25*%
%MOIN*%
G70*
G01*
G75*
%ADD10R,0.02756X0.03543*%
%ADD11R,0.03150X0.03543*%
%ADD12R,0.03543X0.03150*%
%ADD13R,0.03543X0.02756*%
%ADD14R,0.10236X0.04724*%
%ADD15C,0.01000*%
%ADD16C,0.06000*%
%ADD17C,0.06000*%
%ADD18C,0.05906*%
%ADD19C,0.06299*%
%ADD20R,0.06000X0.06000*%
%ADD21C,0.05512*%
%ADD22R,0.13780X0.15748*%
%ADD23R,0.05906X0.05906*%
%ADD24C,0.05000*%
G36*
X0480500Y0387500D02*
Y0312000D01*
Y0311000D01*
X0488000Y0303500D01*
X0520500Y0336000D01*
X0605000D01*
X0609500Y0331500D01*
X0662500Y0278500D01*
Y0271500D01*
Y0218500D01*
X0650000Y0206000D01*
X0612000Y0168000D01*
X0521000D01*
X0510000Y0179000D01*
X0506000Y0183000D01*
X0233000D01*
X0229962Y0186038D01*
X0230153Y0186500D01*
X0238000D01*
Y0195500D01*
X0229000D01*
Y0187653D01*
X0228538Y0187462D01*
X0225500Y0190500D01*
X0224000Y0192000D01*
Y0389347D01*
X0224462Y0389538D01*
X0224500Y0389500D01*
X0226000D01*
X0226500Y0390000D01*
X0478000D01*
X0480500Y0387500D01*
D02*
G37*
%LPC*%
G36*
X0410500Y0254830D02*
X0407439Y0253561D01*
X0406170Y0250500D01*
X0407439Y0247439D01*
X0410500Y0246170D01*
X0413561Y0247439D01*
X0413933Y0248335D01*
X0479108D01*
X0479910Y0246398D01*
X0483354Y0244972D01*
X0486798Y0246398D01*
X0488225Y0249843D01*
X0486798Y0253287D01*
X0483354Y0254713D01*
X0479910Y0253287D01*
X0479653Y0252665D01*
X0413933D01*
X0413561Y0253561D01*
X0410500Y0254830D01*
D02*
G37*
G36*
X0380000Y0246830D02*
X0376939Y0245562D01*
X0376567Y0244665D01*
X0370138D01*
Y0246362D01*
X0356902D01*
Y0238638D01*
X0370138D01*
Y0240335D01*
X0376567D01*
X0376939Y0239439D01*
X0380000Y0238170D01*
X0383062Y0239439D01*
X0384330Y0242500D01*
X0383062Y0245562D01*
X0380000Y0246830D01*
D02*
G37*
G36*
X0370138Y0256362D02*
X0356902D01*
Y0248638D01*
X0370138D01*
Y0256362D01*
D02*
G37*
G36*
X0335099D02*
X0321862D01*
Y0248638D01*
X0335099D01*
Y0256362D01*
D02*
G37*
G36*
X0383000Y0236830D02*
X0379939Y0235561D01*
X0379567Y0234665D01*
X0370138D01*
Y0236362D01*
X0356902D01*
Y0228638D01*
X0370138D01*
Y0230335D01*
X0379567D01*
X0379939Y0229438D01*
X0383000Y0228170D01*
X0386062Y0229438D01*
X0387330Y0232500D01*
X0386062Y0235561D01*
X0383000Y0236830D01*
D02*
G37*
G36*
X0445280Y0235707D02*
X0443101Y0234805D01*
X0442198Y0232626D01*
X0445280D01*
Y0235707D01*
D02*
G37*
G36*
Y0231626D02*
X0442198D01*
X0443101Y0229447D01*
X0445280Y0228545D01*
Y0231626D01*
D02*
G37*
G36*
X0482854Y0236248D02*
X0480293Y0235188D01*
X0479921Y0234291D01*
X0448671D01*
X0448458Y0234805D01*
X0446280Y0235707D01*
Y0232126D01*
Y0228545D01*
X0448458Y0229447D01*
X0448671Y0229961D01*
X0479921D01*
X0480293Y0229064D01*
X0482854Y0228004D01*
Y0232126D01*
Y0236248D01*
D02*
G37*
G36*
X0483854D02*
Y0232626D01*
X0487477D01*
X0486416Y0235188D01*
X0483854Y0236248D01*
D02*
G37*
G36*
X0335099Y0266362D02*
X0321862D01*
Y0258638D01*
X0335099D01*
Y0266362D01*
D02*
G37*
G36*
X0274000Y0272871D02*
X0270556Y0271444D01*
X0269349Y0268531D01*
X0268808D01*
X0267601Y0271444D01*
X0264157Y0272871D01*
X0260713Y0271444D01*
X0259287Y0268000D01*
X0260713Y0264556D01*
X0264157Y0263129D01*
X0267601Y0264556D01*
X0268808Y0267469D01*
X0269349D01*
X0270556Y0264556D01*
X0274000Y0263129D01*
X0277444Y0264556D01*
X0278871Y0268000D01*
X0277444Y0271444D01*
X0274000Y0272871D01*
D02*
G37*
G36*
X0254815Y0272123D02*
Y0268500D01*
X0258437D01*
X0257377Y0271061D01*
X0254815Y0272123D01*
D02*
G37*
G36*
X0370138Y0276362D02*
X0356902D01*
Y0268638D01*
X0370138D01*
Y0276362D01*
D02*
G37*
G36*
X0335099D02*
X0321862D01*
Y0268638D01*
X0335099D01*
Y0276362D01*
D02*
G37*
G36*
X0230547Y0271034D02*
Y0267953D01*
X0233629D01*
X0232726Y0270132D01*
X0230547Y0271034D01*
D02*
G37*
G36*
X0249000Y0287830D02*
X0245938Y0286561D01*
X0244670Y0283500D01*
X0245938Y0280438D01*
X0246835Y0280067D01*
Y0247397D01*
X0239397Y0239958D01*
X0238500Y0240330D01*
X0235438Y0239061D01*
X0234170Y0236000D01*
X0235438Y0232939D01*
X0238500Y0231670D01*
X0241562Y0232939D01*
X0242830Y0236000D01*
X0242458Y0236897D01*
X0250531Y0244969D01*
X0251165Y0246500D01*
Y0264434D01*
X0251665Y0264768D01*
X0253815Y0263878D01*
Y0268000D01*
Y0272123D01*
X0251665Y0271232D01*
X0251165Y0271566D01*
Y0280067D01*
X0252062Y0280438D01*
X0253330Y0283500D01*
X0252062Y0286561D01*
X0249000Y0287830D01*
D02*
G37*
G36*
X0370138Y0266362D02*
X0356902D01*
Y0258638D01*
X0370138D01*
Y0266362D01*
D02*
G37*
G36*
X0229547Y0271034D02*
X0227368Y0270132D01*
X0226466Y0267953D01*
X0229547D01*
Y0271034D01*
D02*
G37*
G36*
X0258437Y0267500D02*
X0254815D01*
Y0263878D01*
X0257377Y0264938D01*
X0258437Y0267500D01*
D02*
G37*
G36*
X0487477Y0231626D02*
X0483854D01*
Y0228004D01*
X0486416Y0229064D01*
X0487477Y0231626D01*
D02*
G37*
G36*
X0409500Y0195871D02*
X0406056Y0194444D01*
X0404771Y0191341D01*
X0404229D01*
X0402944Y0194444D01*
X0399500Y0195871D01*
X0396056Y0194444D01*
X0394771Y0191341D01*
X0394229D01*
X0392944Y0194444D01*
X0389500Y0195871D01*
X0386056Y0194444D01*
X0384771Y0191341D01*
X0384229D01*
X0382944Y0194444D01*
X0379500Y0195871D01*
X0376056Y0194444D01*
X0374771Y0191341D01*
X0374229D01*
X0372944Y0194444D01*
X0369500Y0195871D01*
X0366056Y0194444D01*
X0364771Y0191341D01*
X0364229D01*
X0362944Y0194444D01*
X0359500Y0195871D01*
X0356056Y0194444D01*
X0354771Y0191341D01*
X0354229D01*
X0352944Y0194444D01*
X0349500Y0195871D01*
X0346056Y0194444D01*
X0344771Y0191341D01*
X0344229D01*
X0342944Y0194444D01*
X0339500Y0195871D01*
X0336056Y0194444D01*
X0334771Y0191341D01*
X0334229D01*
X0332944Y0194444D01*
X0329500Y0195871D01*
X0326056Y0194444D01*
X0324629Y0191000D01*
X0326056Y0187556D01*
X0329500Y0186129D01*
X0332944Y0187556D01*
X0334229Y0190659D01*
X0334771D01*
X0336056Y0187556D01*
X0339500Y0186129D01*
X0342944Y0187556D01*
X0344229Y0190659D01*
X0344771D01*
X0346056Y0187556D01*
X0349500Y0186129D01*
X0352944Y0187556D01*
X0354229Y0190659D01*
X0354771D01*
X0356056Y0187556D01*
X0359500Y0186129D01*
X0362944Y0187556D01*
X0364229Y0190659D01*
X0364771D01*
X0366056Y0187556D01*
X0369500Y0186129D01*
X0372944Y0187556D01*
X0374229Y0190659D01*
X0374771D01*
X0376056Y0187556D01*
X0379500Y0186129D01*
X0382944Y0187556D01*
X0384229Y0190659D01*
X0384771D01*
X0386056Y0187556D01*
X0389500Y0186129D01*
X0392944Y0187556D01*
X0394229Y0190659D01*
X0394771D01*
X0396056Y0187556D01*
X0399500Y0186129D01*
X0402944Y0187556D01*
X0404229Y0190659D01*
X0404771D01*
X0406056Y0187556D01*
X0409500Y0186129D01*
X0412944Y0187556D01*
X0414371Y0191000D01*
X0412944Y0194444D01*
X0409500Y0195871D01*
D02*
G37*
G36*
X0303500D02*
X0300056Y0194444D01*
X0298771Y0191341D01*
X0298229D01*
X0296944Y0194444D01*
X0293500Y0195871D01*
X0290056Y0194444D01*
X0288771Y0191341D01*
X0288229D01*
X0286944Y0194444D01*
X0283500Y0195871D01*
X0280056Y0194444D01*
X0278771Y0191341D01*
X0278229D01*
X0276944Y0194444D01*
X0273500Y0195871D01*
X0270056Y0194444D01*
X0268771Y0191341D01*
X0268229D01*
X0266944Y0194444D01*
X0263500Y0195871D01*
X0260056Y0194444D01*
X0258629Y0191000D01*
X0260056Y0187556D01*
X0263500Y0186129D01*
X0266944Y0187556D01*
X0268229Y0190659D01*
X0268771D01*
X0270056Y0187556D01*
X0273500Y0186129D01*
X0276944Y0187556D01*
X0278229Y0190659D01*
X0278771D01*
X0280056Y0187556D01*
X0283500Y0186129D01*
X0286944Y0187556D01*
X0288229Y0190659D01*
X0288771D01*
X0290056Y0187556D01*
X0293500Y0186129D01*
X0296944Y0187556D01*
X0298229Y0190659D01*
X0298771D01*
X0300056Y0187556D01*
X0303500Y0186129D01*
X0306944Y0187556D01*
X0308371Y0191000D01*
X0306944Y0194444D01*
X0303500Y0195871D01*
D02*
G37*
G36*
X0244000Y0195123D02*
Y0191500D01*
X0247622D01*
X0246562Y0194062D01*
X0244000Y0195123D01*
D02*
G37*
G36*
X0243000D02*
X0240439Y0194062D01*
X0239377Y0191500D01*
X0243000D01*
Y0195123D01*
D02*
G37*
G36*
X0257623Y0190500D02*
X0254000D01*
Y0186878D01*
X0256561Y0187938D01*
X0257623Y0190500D01*
D02*
G37*
G36*
X0243000D02*
X0239377D01*
X0240439Y0187938D01*
X0243000Y0186878D01*
Y0190500D01*
D02*
G37*
G36*
X0324000Y0195500D02*
X0315000D01*
Y0186500D01*
X0324000D01*
Y0195500D01*
D02*
G37*
G36*
X0253000Y0190500D02*
X0249377D01*
X0250438Y0187938D01*
X0253000Y0186878D01*
Y0190500D01*
D02*
G37*
G36*
X0247622D02*
X0244000D01*
Y0186878D01*
X0246562Y0187938D01*
X0247622Y0190500D01*
D02*
G37*
G36*
X0253000Y0195123D02*
X0250438Y0194062D01*
X0249377Y0191500D01*
X0253000D01*
Y0195123D01*
D02*
G37*
G36*
X0383500Y0216830D02*
X0380438Y0215562D01*
X0380067Y0214665D01*
X0370138D01*
Y0216362D01*
X0356902D01*
Y0208638D01*
X0370138D01*
Y0210335D01*
X0380067D01*
X0380438Y0209438D01*
X0383500Y0208170D01*
X0386561Y0209438D01*
X0387830Y0212500D01*
X0386561Y0215562D01*
X0383500Y0216830D01*
D02*
G37*
G36*
X0251000Y0231533D02*
X0247441Y0230059D01*
X0245967Y0226500D01*
X0247441Y0222941D01*
X0250318Y0221750D01*
Y0221250D01*
X0247441Y0220059D01*
X0245967Y0216500D01*
X0247441Y0212941D01*
X0251000Y0211467D01*
X0254559Y0212941D01*
X0256033Y0216500D01*
X0254559Y0220059D01*
X0251682Y0221250D01*
Y0221750D01*
X0254559Y0222941D01*
X0256033Y0226500D01*
X0254559Y0230059D01*
X0251000Y0231533D01*
D02*
G37*
G36*
X0383000Y0226830D02*
X0379939Y0225561D01*
X0379567Y0224665D01*
X0370138D01*
Y0226362D01*
X0356902D01*
Y0218638D01*
X0370138D01*
Y0220335D01*
X0379567D01*
X0379939Y0219439D01*
X0383000Y0218170D01*
X0386062Y0219439D01*
X0387330Y0222500D01*
X0386062Y0225561D01*
X0383000Y0226830D01*
D02*
G37*
G36*
X0233629Y0266953D02*
X0226466D01*
X0227368Y0264774D01*
X0227882Y0264561D01*
Y0220272D01*
X0227669D01*
Y0218000D01*
X0232425D01*
Y0220272D01*
X0232212D01*
Y0264561D01*
X0232726Y0264774D01*
X0233629Y0266953D01*
D02*
G37*
G36*
X0232425Y0217000D02*
X0227669D01*
Y0214728D01*
X0227882D01*
Y0207345D01*
X0227368Y0207132D01*
X0226466Y0204953D01*
X0233629D01*
X0232726Y0207132D01*
X0232212Y0207345D01*
Y0214728D01*
X0232425D01*
Y0217000D01*
D02*
G37*
G36*
X0229547Y0203953D02*
X0226466D01*
X0227368Y0201774D01*
X0229547Y0200871D01*
Y0203953D01*
D02*
G37*
G36*
X0254000Y0195123D02*
Y0191500D01*
X0257623D01*
X0256561Y0194062D01*
X0254000Y0195123D01*
D02*
G37*
G36*
X0238831Y0220772D02*
X0233075D01*
Y0214228D01*
X0236163D01*
X0242495Y0207897D01*
X0242123Y0207000D01*
X0243391Y0203939D01*
X0246453Y0202670D01*
X0249514Y0203939D01*
X0250782Y0207000D01*
X0249514Y0210062D01*
X0246453Y0211330D01*
X0245556Y0210958D01*
X0238831Y0217684D01*
Y0220772D01*
D02*
G37*
G36*
X0233629Y0203953D02*
X0230547D01*
Y0200871D01*
X0232726Y0201774D01*
X0233629Y0203953D01*
D02*
G37*
G36*
X0362543Y0343732D02*
X0345764D01*
Y0324984D01*
X0362543D01*
Y0343732D01*
D02*
G37*
G36*
X0319236D02*
X0302457D01*
Y0324984D01*
X0319236D01*
Y0343732D01*
D02*
G37*
G36*
X0437803Y0343513D02*
X0434359Y0342086D01*
X0432932Y0338642D01*
X0434359Y0335198D01*
X0437803Y0333771D01*
X0441247Y0335198D01*
X0442674Y0338642D01*
X0441247Y0342086D01*
X0437803Y0343513D01*
D02*
G37*
G36*
X0423039D02*
X0419595Y0342086D01*
X0418169Y0338642D01*
X0419595Y0335198D01*
X0423039Y0333771D01*
X0426484Y0335198D01*
X0427910Y0338642D01*
X0426484Y0342086D01*
X0423039Y0343513D01*
D02*
G37*
G36*
X0462000Y0327081D02*
Y0324000D01*
X0465081D01*
X0464179Y0326179D01*
X0462000Y0327081D01*
D02*
G37*
G36*
X0248500Y0327571D02*
X0245975Y0326525D01*
X0244929Y0324000D01*
X0248500D01*
Y0327571D01*
D02*
G37*
G36*
X0269000Y0328320D02*
X0265592Y0326908D01*
X0264293Y0323773D01*
X0264271Y0323718D01*
X0263729D01*
X0263707Y0323773D01*
X0262408Y0326908D01*
X0259000Y0328320D01*
X0255592Y0326908D01*
X0254180Y0323500D01*
X0255592Y0320092D01*
X0259000Y0318680D01*
X0262408Y0320092D01*
X0263707Y0323227D01*
X0263729Y0323282D01*
X0264271D01*
X0264293Y0323227D01*
X0265592Y0320092D01*
X0269000Y0318680D01*
X0272408Y0320092D01*
X0273820Y0323500D01*
X0272408Y0326908D01*
X0269000Y0328320D01*
D02*
G37*
G36*
X0461000Y0327081D02*
X0458821Y0326179D01*
X0457919Y0324000D01*
X0461000D01*
Y0327081D01*
D02*
G37*
G36*
X0249500Y0327571D02*
Y0324000D01*
X0253071D01*
X0252025Y0326525D01*
X0249500Y0327571D01*
D02*
G37*
G36*
X0452067Y0338142D02*
X0448445D01*
X0449506Y0335580D01*
X0452067Y0334519D01*
Y0338142D01*
D02*
G37*
G36*
X0307500Y0385500D02*
X0298500D01*
Y0376500D01*
X0307500D01*
Y0385500D01*
D02*
G37*
G36*
X0288500D02*
X0279500D01*
Y0376500D01*
X0288500D01*
Y0385500D01*
D02*
G37*
G36*
X0373000Y0385871D02*
X0369556Y0384444D01*
X0368271Y0381341D01*
X0367729D01*
X0366444Y0384444D01*
X0363000Y0385871D01*
X0359556Y0384444D01*
X0358271Y0381341D01*
X0357729D01*
X0356444Y0384444D01*
X0353000Y0385871D01*
X0349556Y0384444D01*
X0348271Y0381341D01*
X0347729D01*
X0346444Y0384444D01*
X0343000Y0385871D01*
X0339556Y0384444D01*
X0338271Y0381341D01*
X0337729D01*
X0336444Y0384444D01*
X0333000Y0385871D01*
X0329556Y0384444D01*
X0328271Y0381341D01*
X0327729D01*
X0326444Y0384444D01*
X0323000Y0385871D01*
X0319556Y0384444D01*
X0318271Y0381341D01*
X0317729D01*
X0316444Y0384444D01*
X0313000Y0385871D01*
X0309556Y0384444D01*
X0308129Y0381000D01*
X0309556Y0377556D01*
X0313000Y0376129D01*
X0316444Y0377556D01*
X0317729Y0380659D01*
X0318271D01*
X0319556Y0377556D01*
X0323000Y0376129D01*
X0326444Y0377556D01*
X0327729Y0380659D01*
X0328271D01*
X0329556Y0377556D01*
X0333000Y0376129D01*
X0336444Y0377556D01*
X0337729Y0380659D01*
X0338271D01*
X0339556Y0377556D01*
X0343000Y0376129D01*
X0346444Y0377556D01*
X0347729Y0380659D01*
X0348271D01*
X0349556Y0377556D01*
X0353000Y0376129D01*
X0356444Y0377556D01*
X0357729Y0380659D01*
X0358271D01*
X0359556Y0377556D01*
X0363000Y0376129D01*
X0366444Y0377556D01*
X0367729Y0380659D01*
X0368271D01*
X0369556Y0377556D01*
X0373000Y0376129D01*
X0376444Y0377556D01*
X0377871Y0381000D01*
X0376444Y0384444D01*
X0373000Y0385871D01*
D02*
G37*
G36*
X0274000D02*
X0270556Y0384444D01*
X0269271Y0381341D01*
X0268729D01*
X0267444Y0384444D01*
X0264000Y0385871D01*
X0260556Y0384444D01*
X0259271Y0381341D01*
X0258729D01*
X0257444Y0384444D01*
X0254000Y0385871D01*
X0250556Y0384444D01*
X0249271Y0381341D01*
X0248729D01*
X0247444Y0384444D01*
X0244000Y0385871D01*
X0240556Y0384444D01*
X0239271Y0381341D01*
X0238729D01*
X0237444Y0384444D01*
X0234000Y0385871D01*
X0230556Y0384444D01*
X0229129Y0381000D01*
X0230556Y0377556D01*
X0234000Y0376129D01*
X0237444Y0377556D01*
X0238729Y0380659D01*
X0239271D01*
X0240556Y0377556D01*
X0244000Y0376129D01*
X0247444Y0377556D01*
X0248729Y0380659D01*
X0249271D01*
X0250556Y0377556D01*
X0254000Y0376129D01*
X0257444Y0377556D01*
X0258729Y0380659D01*
X0259271D01*
X0260556Y0377556D01*
X0264000Y0376129D01*
X0267444Y0377556D01*
X0268729Y0380659D01*
X0269271D01*
X0270556Y0377556D01*
X0274000Y0376129D01*
X0277444Y0377556D01*
X0278871Y0381000D01*
X0277444Y0384444D01*
X0274000Y0385871D01*
D02*
G37*
G36*
X0468043Y0365732D02*
X0451264D01*
Y0346984D01*
X0468043D01*
Y0365732D01*
D02*
G37*
G36*
X0452067Y0342764D02*
X0449506Y0341703D01*
X0448445Y0339142D01*
X0452067D01*
Y0342764D01*
D02*
G37*
G36*
X0456690Y0338142D02*
X0453067D01*
Y0334519D01*
X0455628Y0335580D01*
X0456690Y0338142D01*
D02*
G37*
G36*
X0424736Y0365732D02*
X0407957D01*
Y0346984D01*
X0424736D01*
Y0365732D01*
D02*
G37*
G36*
X0453067Y0342764D02*
Y0339142D01*
X0456690D01*
X0455628Y0341703D01*
X0453067Y0342764D01*
D02*
G37*
G36*
X0332303Y0321513D02*
X0328859Y0320086D01*
X0327432Y0316642D01*
X0328859Y0313198D01*
X0332303Y0311771D01*
X0335747Y0313198D01*
X0337174Y0316642D01*
X0335747Y0320086D01*
X0332303Y0321513D01*
D02*
G37*
G36*
X0317539D02*
X0314095Y0320086D01*
X0312669Y0316642D01*
X0314095Y0313198D01*
X0317539Y0311771D01*
X0320984Y0313198D01*
X0322410Y0316642D01*
X0320984Y0320086D01*
X0317539Y0321513D01*
D02*
G37*
G36*
X0351189Y0316142D02*
X0347567D01*
Y0312519D01*
X0350129Y0313580D01*
X0351189Y0316142D01*
D02*
G37*
G36*
X0346567D02*
X0342945D01*
X0344005Y0313580D01*
X0346567Y0312519D01*
Y0316142D01*
D02*
G37*
G36*
X0370138Y0286362D02*
X0356902D01*
Y0278638D01*
X0370138D01*
Y0286362D01*
D02*
G37*
G36*
X0335099D02*
X0321862D01*
Y0278638D01*
X0335099D01*
Y0286362D01*
D02*
G37*
G36*
X0279000Y0298320D02*
X0275592Y0296908D01*
X0274293Y0293773D01*
X0274271Y0293718D01*
X0273729D01*
X0273707Y0293773D01*
X0272408Y0296908D01*
X0269000Y0298320D01*
X0265592Y0296908D01*
X0264293Y0293773D01*
X0264271Y0293718D01*
X0263729D01*
X0263707Y0293773D01*
X0262408Y0296908D01*
X0259000Y0298320D01*
X0255592Y0296908D01*
X0254293Y0293773D01*
X0254271Y0293718D01*
X0253729D01*
X0253707Y0293773D01*
X0252408Y0296908D01*
X0249000Y0298320D01*
X0245592Y0296908D01*
X0244180Y0293500D01*
X0245592Y0290092D01*
X0249000Y0288680D01*
X0252408Y0290092D01*
X0253707Y0293227D01*
X0253729Y0293282D01*
X0254271D01*
X0254293Y0293227D01*
X0255592Y0290092D01*
X0259000Y0288680D01*
X0262408Y0290092D01*
X0263707Y0293227D01*
X0263729Y0293282D01*
X0264271D01*
X0264293Y0293227D01*
X0265592Y0290092D01*
X0269000Y0288680D01*
X0272408Y0290092D01*
X0273707Y0293227D01*
X0273729Y0293282D01*
X0274271D01*
X0274293Y0293227D01*
X0275592Y0290092D01*
X0279000Y0288680D01*
X0282408Y0290092D01*
X0283820Y0293500D01*
X0282408Y0296908D01*
X0279000Y0298320D01*
D02*
G37*
G36*
X0277000Y0346371D02*
X0273556Y0344944D01*
X0272129Y0341500D01*
X0273556Y0338056D01*
X0276291Y0336923D01*
X0276483Y0336461D01*
X0275670Y0334500D01*
X0276939Y0331438D01*
X0280000Y0330170D01*
X0280897Y0330542D01*
X0282986Y0328453D01*
X0282779Y0327953D01*
X0274547D01*
Y0319047D01*
X0283453D01*
Y0327279D01*
X0283953Y0327486D01*
X0287335Y0324103D01*
Y0269000D01*
X0287969Y0267469D01*
X0314469Y0240969D01*
X0316000Y0240335D01*
X0321862D01*
Y0238638D01*
X0326316D01*
Y0236362D01*
X0321862D01*
Y0228638D01*
X0326316D01*
Y0226362D01*
X0321862D01*
Y0218638D01*
X0326316D01*
Y0216362D01*
X0321862D01*
Y0208638D01*
X0335099D01*
Y0216362D01*
X0330645D01*
Y0218638D01*
X0335099D01*
Y0226362D01*
X0330645D01*
Y0228638D01*
X0335099D01*
Y0236362D01*
X0330645D01*
Y0238638D01*
X0335099D01*
Y0246362D01*
X0321862D01*
Y0244665D01*
X0316897D01*
X0291665Y0269897D01*
Y0320105D01*
X0292165Y0320204D01*
X0292469Y0319469D01*
X0298057Y0313881D01*
Y0309278D01*
X0298691Y0307747D01*
X0303469Y0302969D01*
X0305000Y0302335D01*
X0355716D01*
X0357247Y0302969D01*
X0363358Y0309080D01*
X0382922Y0289516D01*
X0384453Y0288882D01*
X0470000D01*
X0471531Y0289516D01*
X0475183Y0293169D01*
X0478272D01*
Y0298925D01*
X0478272D01*
Y0299075D01*
X0478272D01*
Y0304831D01*
X0477165D01*
Y0313790D01*
X0478257Y0314243D01*
X0479606Y0317500D01*
X0478257Y0320757D01*
X0475000Y0322107D01*
X0471743Y0320757D01*
X0470394Y0317500D01*
X0471743Y0314243D01*
X0472835Y0313790D01*
Y0304831D01*
X0471728D01*
Y0304118D01*
X0463453D01*
X0461922Y0303484D01*
X0458317Y0299879D01*
X0457831Y0299772D01*
Y0299772D01*
X0457831Y0299772D01*
X0451681D01*
X0451409Y0300159D01*
Y0310348D01*
X0460986Y0319924D01*
X0461000Y0319919D01*
Y0323000D01*
X0457919D01*
X0457925Y0322986D01*
X0447714Y0312775D01*
X0447079Y0311244D01*
Y0299272D01*
X0446669D01*
Y0298665D01*
X0443344D01*
X0443132Y0299179D01*
X0440953Y0300081D01*
Y0296500D01*
X0439953D01*
Y0300081D01*
X0437774Y0299179D01*
X0437248Y0297909D01*
X0435659D01*
X0435272Y0298181D01*
Y0304331D01*
X0434165D01*
Y0313790D01*
X0435257Y0314243D01*
X0435710Y0315335D01*
X0441290D01*
X0441743Y0314243D01*
X0445000Y0312893D01*
X0448257Y0314243D01*
X0449607Y0317500D01*
X0448257Y0320757D01*
X0445000Y0322107D01*
X0441743Y0320757D01*
X0441290Y0319665D01*
X0435710D01*
X0435257Y0320757D01*
X0432000Y0322107D01*
X0428743Y0320757D01*
X0427393Y0317500D01*
X0428743Y0314243D01*
X0429835Y0313790D01*
Y0304331D01*
X0428728D01*
Y0298181D01*
X0429228D01*
Y0296909D01*
X0414173D01*
X0413894Y0297409D01*
X0415074Y0300256D01*
X0413805Y0303317D01*
X0410744Y0304586D01*
X0407683Y0303317D01*
X0407311Y0302421D01*
X0405272D01*
Y0303331D01*
X0404165D01*
Y0313790D01*
X0405257Y0314243D01*
X0406607Y0317500D01*
X0405257Y0320757D01*
X0402000Y0322107D01*
X0398743Y0320757D01*
X0397393Y0317500D01*
X0398743Y0314243D01*
X0399835Y0313790D01*
Y0303331D01*
X0398728D01*
Y0302618D01*
X0392772D01*
Y0303331D01*
X0386228D01*
Y0298486D01*
X0385766Y0298295D01*
X0382165Y0301897D01*
Y0304047D01*
X0381531Y0305578D01*
X0373503Y0313605D01*
X0374081Y0315000D01*
X0366919D01*
X0367821Y0312821D01*
X0368805Y0312414D01*
X0368969Y0312017D01*
X0377835Y0303151D01*
Y0301433D01*
X0377335Y0301226D01*
X0364889Y0313672D01*
X0363358Y0314307D01*
X0361827Y0313672D01*
X0354820Y0306665D01*
X0305897D01*
X0302387Y0310174D01*
Y0314778D01*
X0301753Y0316309D01*
X0296165Y0321897D01*
Y0334000D01*
X0295531Y0335531D01*
X0288031Y0343031D01*
X0286500Y0343665D01*
X0280974D01*
X0280444Y0344944D01*
X0277000Y0346371D01*
D02*
G37*
G36*
X0253071Y0323000D02*
X0249500D01*
Y0319429D01*
X0252025Y0320475D01*
X0253071Y0323000D01*
D02*
G37*
G36*
X0248500D02*
X0244929D01*
X0245975Y0320475D01*
X0248500Y0319429D01*
Y0323000D01*
D02*
G37*
G36*
X0347567Y0320764D02*
Y0317142D01*
X0351189D01*
X0350129Y0319703D01*
X0347567Y0320764D01*
D02*
G37*
G36*
X0346567D02*
X0344005Y0319703D01*
X0342945Y0317142D01*
X0346567D01*
Y0320764D01*
D02*
G37*
G36*
X0465081Y0323000D02*
X0462000D01*
Y0319919D01*
X0464179Y0320821D01*
X0465081Y0323000D01*
D02*
G37*
G36*
X0370000Y0319081D02*
X0367821Y0318179D01*
X0366919Y0316000D01*
X0370000D01*
Y0319081D01*
D02*
G37*
G36*
X0371000D02*
Y0316000D01*
X0374081D01*
X0373179Y0318179D01*
X0371000Y0319081D01*
D02*
G37*
%LPD*%
G36*
X0471728Y0299075D02*
X0471728D01*
Y0298925D01*
X0471728D01*
Y0295837D01*
X0469103Y0293212D01*
X0458324D01*
X0457831Y0293228D01*
Y0294335D01*
X0458000D01*
X0459531Y0294969D01*
X0464350Y0299788D01*
X0471728D01*
Y0299075D01*
D02*
G37*
G36*
X0407594Y0297409D02*
X0407315Y0296909D01*
X0405659D01*
X0405272Y0297181D01*
Y0298091D01*
X0407311D01*
X0407594Y0297409D01*
D02*
G37*
G36*
X0291835Y0333103D02*
Y0325895D01*
X0291335Y0325796D01*
X0291031Y0326531D01*
X0283958Y0333603D01*
X0284330Y0334500D01*
X0283062Y0337561D01*
X0280653Y0338559D01*
X0280974Y0339335D01*
X0285603D01*
X0291835Y0333103D01*
D02*
G37*
G36*
X0449744Y0293728D02*
X0451328D01*
X0451339Y0293717D01*
X0451218Y0293311D01*
X0451137Y0293212D01*
X0442942D01*
X0442845Y0293702D01*
X0443132Y0293821D01*
X0443344Y0294335D01*
X0446669D01*
Y0293728D01*
X0448744D01*
Y0296500D01*
X0449744D01*
Y0293728D01*
D02*
G37*
G36*
X0398728Y0297181D02*
X0398728Y0297181D01*
X0398728D01*
X0398654Y0296712D01*
X0392272D01*
Y0296925D01*
X0390397D01*
X0390258Y0297075D01*
X0390475Y0297575D01*
X0392772D01*
Y0298288D01*
X0398728D01*
Y0297181D01*
D02*
G37*
D10*
X0235953Y0217500D02*
D03*
X0230047D02*
D03*
D11*
X0454756Y0296500D02*
D03*
X0449244D02*
D03*
D12*
X0432000Y0301256D02*
D03*
Y0295744D02*
D03*
X0402000Y0300256D02*
D03*
Y0294744D02*
D03*
D13*
X0389500Y0300453D02*
D03*
Y0294547D02*
D03*
X0475000Y0296047D02*
D03*
Y0301953D02*
D03*
D14*
X0363520Y0212500D02*
D03*
Y0222500D02*
D03*
Y0232500D02*
D03*
Y0242500D02*
D03*
Y0252500D02*
D03*
Y0262500D02*
D03*
Y0272500D02*
D03*
Y0282500D02*
D03*
X0328480D02*
D03*
Y0272500D02*
D03*
Y0262500D02*
D03*
Y0252500D02*
D03*
Y0242500D02*
D03*
Y0232500D02*
D03*
Y0222500D02*
D03*
Y0212500D02*
D03*
D15*
X0355716Y0304500D02*
X0363358Y0312142D01*
X0305000Y0304500D02*
X0355716D01*
X0300222Y0309278D02*
X0305000Y0304500D01*
X0300222Y0309278D02*
Y0314778D01*
X0286500Y0341500D02*
X0294000Y0334000D01*
Y0321000D02*
Y0334000D01*
Y0321000D02*
X0300222Y0314778D01*
X0316000Y0242500D02*
X0328480D01*
X0289500Y0269000D02*
X0316000Y0242500D01*
X0380000Y0301000D02*
X0385500Y0295500D01*
X0380000Y0301000D02*
Y0304047D01*
X0385500Y0295500D02*
X0388547D01*
X0370500Y0313547D02*
X0380000Y0304047D01*
X0388547Y0295500D02*
X0389500Y0294547D01*
X0277000Y0341500D02*
X0286500D01*
X0238500Y0236000D02*
X0249000Y0246500D01*
Y0283500D01*
X0432000Y0295744D02*
X0440453D01*
X0445780Y0232126D02*
X0483354D01*
X0440453Y0296500D02*
X0449244D01*
X0482697Y0250500D02*
X0483354Y0249843D01*
X0410500Y0250500D02*
X0482697D01*
X0402000Y0300256D02*
X0410744D01*
X0363520Y0242500D02*
X0380000D01*
X0363358Y0312142D02*
X0384453Y0291047D01*
X0470000D01*
X0475000Y0296047D01*
X0370500Y0313547D02*
Y0315500D01*
X0463453Y0301953D02*
X0475000D01*
X0458000Y0296500D02*
X0463453Y0301953D01*
X0454756Y0296500D02*
X0458000D01*
X0475000Y0301953D02*
Y0317500D01*
X0449244Y0311244D02*
X0461500Y0323500D01*
X0449244Y0296500D02*
Y0311244D01*
X0444000Y0317500D02*
X0444500Y0317000D01*
X0432000Y0317500D02*
X0444000D01*
X0401803Y0300453D02*
X0402000Y0300256D01*
X0389500Y0300453D02*
X0401803D01*
X0402000Y0300256D02*
Y0317500D01*
X0432000Y0301256D02*
Y0317500D01*
X0431000Y0294744D02*
X0432000Y0295744D01*
X0402000Y0294744D02*
X0431000D01*
X0401803Y0294547D02*
X0402000Y0294744D01*
X0389500Y0294547D02*
X0401803D01*
X0289500Y0269000D02*
Y0325000D01*
X0280000Y0334500D02*
X0289500Y0325000D01*
X0363520Y0232500D02*
X0383000D01*
X0363520Y0222500D02*
X0383000D01*
X0363520Y0212500D02*
X0383500D01*
X0328480Y0232500D02*
Y0242500D01*
Y0222500D02*
Y0232500D01*
Y0212500D02*
Y0222500D01*
X0230047Y0217500D02*
Y0267453D01*
X0235953Y0217500D02*
X0246453Y0207000D01*
X0230047Y0204453D02*
Y0217500D01*
X0253000Y0191000D02*
X0253500D01*
D16*
X0483354Y0249843D02*
D03*
Y0232126D02*
D03*
X0329500Y0191000D02*
D03*
X0339500D02*
D03*
X0349500D02*
D03*
X0359500D02*
D03*
X0369500D02*
D03*
X0379500D02*
D03*
X0389500D02*
D03*
X0399500D02*
D03*
X0409500D02*
D03*
X0263500D02*
D03*
X0273500D02*
D03*
X0283500D02*
D03*
X0293500D02*
D03*
X0303500D02*
D03*
X0243500D02*
D03*
X0253500D02*
D03*
X0423039Y0338642D02*
D03*
X0452567D02*
D03*
X0437803D02*
D03*
X0274000Y0381000D02*
D03*
X0264000D02*
D03*
X0254000D02*
D03*
X0244000D02*
D03*
X0234000D02*
D03*
X0333000D02*
D03*
X0343000D02*
D03*
X0353000D02*
D03*
X0363000D02*
D03*
X0373000D02*
D03*
X0313000D02*
D03*
X0323000D02*
D03*
X0254315Y0268000D02*
D03*
X0264157D02*
D03*
X0274000D02*
D03*
X0317539Y0316642D02*
D03*
X0347067D02*
D03*
X0332303D02*
D03*
D17*
X0277000Y0341500D02*
D03*
D18*
X0249000Y0293500D02*
D03*
X0259000D02*
D03*
X0269000D02*
D03*
X0279000D02*
D03*
X0249000Y0323500D02*
D03*
X0259000D02*
D03*
X0269000D02*
D03*
D19*
X0251000Y0226500D02*
D03*
Y0216500D02*
D03*
D20*
X0319500Y0191000D02*
D03*
X0233500D02*
D03*
X0284000Y0381000D02*
D03*
X0303000D02*
D03*
D21*
X0475000Y0317500D02*
D03*
X0445000D02*
D03*
X0432000D02*
D03*
X0402000D02*
D03*
D22*
X0459654Y0356358D02*
D03*
X0416346D02*
D03*
X0354154Y0334358D02*
D03*
X0310846D02*
D03*
D23*
X0279000Y0323500D02*
D03*
D24*
X0238500Y0236000D02*
D03*
X0249000Y0283500D02*
D03*
X0445780Y0232126D02*
D03*
X0440453Y0296500D02*
D03*
X0410500Y0250500D02*
D03*
X0410744Y0300256D02*
D03*
X0380000Y0242500D02*
D03*
X0370500Y0315500D02*
D03*
X0461500Y0323500D02*
D03*
X0280000Y0334500D02*
D03*
X0383000Y0232500D02*
D03*
Y0222500D02*
D03*
X0383500Y0212500D02*
D03*
X0230047Y0267453D02*
D03*
X0246453Y0207000D02*
D03*
X0230047Y0204453D02*
D03*
X0253000Y0191000D02*
D03*
M02*
