M48
;Layer_Color=9474304
;FILE_FORMAT=2:5
INCH,LZ
;TYPE=PLATED
T1F00S00C0.02800
T2F00S00C0.03000
T3F00S00C0.03150
T4F00S00C0.03346
T5F00S00C0.03543
T6F00S00C0.03937
T7F00S00C0.09449
%
T01
X03835Y02125
X0383Y02225
Y02325
X038Y02425
X04105Y02505
X0410744Y0300256
X0440453Y02965
X044578Y0232126
X02385Y0236
X0246453Y0207
X0230047Y0204453
X0253Y0191
X0249Y02835
X0230047Y0267453
X028Y03345
X03705Y03155
X04615Y03235
T02
X0483354Y0232126
Y0249843
X04095Y0191
X03995
X03895
X03795
X03695
X03595
X03495
X03395
X03295
X03195
X03035
X02935
X02835
X02735
X02635
X02535
X02435
X02335
X0234Y0381
X0244
X0254
X0264
X0274
X0284
X0303
X0277Y03415
X0313Y0381
X0323
X0333
X0343
X0353
X0363
X0373
T03
X0251Y02165
Y02265
X0254315Y0268
X0264157
X0274
T04
X0402Y03175
X0432
X0445
X0475
T05
X0249Y02935
X0259
X0269
X0279
Y03235
X0269
X0259
X0249
T06
X0317539Y0316642
X0332303
X0347067
X0423039Y0338642
X0437803
X0452567
T07
X0310846Y0334358
X0354154
X0416346Y0356358
X0459654
M30
